<svg width="227" height="251" viewBox="0 0 227 251" fill="none" xmlns="http://www.w3.org/2000/svg">
<path opacity="0.2" d="M85.3986 251C116.359 251 141.457 237.846 141.457 221.619C141.457 205.392 116.359 192.238 85.3986 192.238C54.4386 192.238 29.3406 205.392 29.3406 221.619C29.3406 237.846 54.4386 251 85.3986 251Z" fill="black"/>
<path d="M109.879 237.994C109.879 237.994 127.311 231.712 132.994 222.501C132.47 212.291 131.488 193.96 131.33 194.077L98.4708 197.48L105.419 226.287L109.879 237.994Z" fill="#37474F"/>
<path d="M122.693 219.963C125.772 214.629 128.451 201.823 128.46 197.496H39.5838C39.5838 197.496 37.9196 216.701 38.061 224.423C38.061 224.423 38.061 224.481 38.061 224.506C39.9166 229.091 44.2851 231.903 54.2369 236.222C72.6594 244.202 97.6555 242.987 109.871 237.986V233.917C109.871 233.917 119.614 225.297 122.693 219.963Z" fill="#455A64"/>
<path d="M145.517 110.618C159.996 123.249 162.65 125.828 162.65 125.828C166.636 109.245 169.931 97.6538 170.439 90.6143C170.946 83.5748 180.041 68.1478 180.041 68.1478C187.288 70.02 192.98 81.4613 189.31 93.1105C186.639 101.59 191.69 122.234 186.498 149.501C183.777 163.78 175.872 167.158 160.528 158.496C149.778 152.43 130.365 138.376 130.365 138.376L115.629 89.3661C127.985 91.5462 131.413 98.3111 145.517 110.618Z" fill="#FFA8A7"/>
<path d="M118 89.1498C125.006 90.531 129.824 94.1423 137.82 102.097C145.817 110.052 162.733 125.396 162.733 125.396C160.164 133.03 159.904 141.253 161.984 149.035C164.98 160.552 169.615 162.49 169.615 162.49C169.615 162.49 165.962 163.547 156.301 157.315C146.641 151.082 125.131 135.68 125.131 135.68L118 89.1498Z" fill="#455A64"/>
<path d="M163.566 122.051C163.566 122.051 161.901 148.486 170.006 155.85C178.11 163.214 183.319 158.347 183.319 158.347C183.319 158.347 182.895 165.835 177.969 165.611C173.043 165.386 172.277 165.752 169.382 165.661C166.486 165.569 161.943 165.17 159.888 159.387C153.83 147.679 156.06 132.31 160.27 123.058C161.677 123.773 161.668 121.751 163.566 122.051Z" fill="#37474F"/>
<path d="M200.885 68.855C200.693 73.6063 198.846 76.8348 197.881 79.2728C194.136 88.7337 192.056 87.5938 188.312 94.8995L180.465 74.6048C177.045 68.6054 179.741 65.9427 185.025 64.6863L200.885 68.855Z" fill="#F28F8F"/>
<path d="M154.687 60.634C156.576 61.8973 158.797 62.5722 161.07 62.5732C163.342 62.5742 165.564 61.9014 167.455 60.6397C169.345 59.378 170.818 57.5842 171.689 55.4851C172.56 53.3859 172.789 51.0757 172.347 48.8465C171.905 46.6174 170.811 44.5693 169.205 42.9614C167.599 41.3535 165.553 40.2578 163.324 39.8131C161.095 39.3683 158.785 39.5943 156.685 40.4626C154.585 41.3309 152.789 42.8024 151.525 44.6911C150.686 45.9455 150.101 47.3529 149.806 48.8331C149.511 50.3132 149.51 51.837 149.803 53.3175C150.097 54.798 150.679 56.2062 151.517 57.4616C152.355 58.7169 153.432 59.7949 154.687 60.634Z" fill="#455A64"/>
<path d="M159.089 56.6732L172.527 50.0165C172.781 52.7583 172.042 55.5002 170.445 57.743C168.847 59.9858 166.498 61.5804 163.823 62.2367C161.149 62.8929 158.328 62.567 155.874 61.3184C153.42 60.0697 151.496 57.9814 150.452 55.4334C152.307 57.913 154.77 58.7951 159.089 56.6732Z" fill="#37474F"/>
<path d="M168.932 53.6194L169.531 44.3916C177.104 52.6327 185.809 59.7571 195.385 65.5516L195.143 69.2461C189.044 67.4155 178.435 60.8087 168.932 53.6194Z" fill="#37474F"/>
<path d="M163.457 61.6658L168.899 61.2497L179.408 68.1727C181.722 69.6945 184.389 70.5929 187.152 70.781C189.914 70.969 192.678 70.4403 195.177 69.2461C188.054 66.7499 177.636 60.0931 168.932 53.6194L163.457 61.6658Z" fill="#455A64"/>
<path d="M181.289 60.7588V61.0334C181.26 61.268 181.176 61.4926 181.045 61.6891C180.913 61.8856 180.738 62.0486 180.532 62.165L178.626 63.1053C178.235 63.2967 178.219 63.6461 178.576 63.8875L178.801 64.0372C179.005 64.1585 179.235 64.2299 179.472 64.2458C179.709 64.2617 179.947 64.2216 180.166 64.1288L182.096 63.1802C182.302 63.0649 182.478 62.902 182.608 62.7052C182.738 62.5083 182.819 62.2832 182.845 62.0485V61.7906C182.846 61.5527 182.79 61.3179 182.683 61.1054C182.576 60.8929 182.421 60.7086 182.229 60.5674L182.005 60.4093C181.63 60.1847 181.314 60.3427 181.289 60.7588Z" fill="#407BFF"/>
<path d="M184.875 62.8307V63.097C184.846 63.3337 184.761 63.5601 184.628 63.7581C184.495 63.9561 184.318 64.1202 184.11 64.2369L182.213 65.1689C181.822 65.3686 181.797 65.7181 182.163 65.9594L182.387 66.1091C182.592 66.2304 182.822 66.3018 183.059 66.3177C183.296 66.3336 183.533 66.2935 183.752 66.2007L185.683 65.2521C185.889 65.1361 186.064 64.9718 186.193 64.7732C186.322 64.5747 186.401 64.3479 186.423 64.1121V63.8542C186.424 63.6163 186.368 63.3815 186.261 63.169C186.154 62.9565 185.999 62.7722 185.807 62.631L185.583 62.4812C185.217 62.2399 184.9 62.423 184.875 62.8307Z" fill="#407BFF"/>
<path d="M188.462 64.9193V65.1938C188.43 65.4298 188.344 65.6552 188.211 65.8528C188.079 66.0505 187.902 66.215 187.696 66.3338L185.799 67.2658C185.408 67.4571 185.383 67.8066 185.749 68.0562L185.974 68.1977C186.176 68.3208 186.404 68.3934 186.641 68.4093C186.877 68.4252 187.113 68.3841 187.33 68.2892L189.26 67.3406C189.467 67.2264 189.643 67.0639 189.774 66.8668C189.904 66.6697 189.985 66.4441 190.009 66.209V65.9511C190.006 65.7138 189.949 65.4804 189.842 65.2685C189.736 65.0566 189.582 64.8717 189.393 64.7279L189.169 64.5781C188.803 64.2869 188.487 64.445 188.462 64.9193Z" fill="#407BFF"/>
<path d="M163.657 34.7892C162.068 35.5714 160.953 37.2855 160.603 39.8483C160.603 40.1146 160.537 40.3892 160.52 40.6804C160.503 40.9717 160.52 41.3544 160.52 41.7039C160.522 42.2799 160.561 42.8552 160.636 43.4263C160.77 44.523 160.998 45.6061 161.319 46.6632C162.209 49.5982 163.687 52.3216 165.662 54.6679C166.596 55.7638 167.671 56.7318 168.858 57.5469C171.287 59.2111 173.567 59.494 175.315 58.7035L169.323 61.6575C168.151 62.1615 166.868 62.3572 165.598 62.2262C164.328 62.0951 163.113 61.6415 162.068 60.9086C160.93 60.1363 159.9 59.2156 159.006 58.171C156.961 55.7949 155.436 53.0172 154.529 50.0165C154.204 48.9632 153.976 47.8826 153.847 46.788C153.771 46.2141 153.732 45.636 153.73 45.0572C153.73 44.7161 153.73 44.3749 153.73 44.0421C153.73 43.7092 153.78 43.4846 153.822 43.21C153.996 42.0881 154.422 41.0205 155.07 40.0878C155.717 39.1551 156.568 38.3818 157.558 37.8263L157.724 37.7431C157.794 37.7049 157.866 37.6715 157.94 37.6433L163.657 34.7892Z" fill="#407BFF"/>
<path opacity="0.1" d="M169.299 61.6575C168.126 62.1615 166.843 62.3572 165.573 62.2262C164.303 62.0951 163.088 61.6415 162.043 60.9086C160.905 60.1363 159.875 59.2156 158.981 58.171L165.637 54.6762C166.571 55.7721 167.646 56.7401 168.833 57.5552C171.262 59.2194 173.542 59.5023 175.29 58.7119L169.299 61.6575Z" fill="black"/>
<path d="M170.255 35.8876C175.248 39.2159 178.967 46.7713 178.576 52.7458C178.385 55.7579 177.178 57.7966 175.398 58.6536L175.298 58.7035C173.55 59.5356 171.271 59.1778 168.841 57.5469C163.848 54.2186 160.137 46.6632 160.52 40.6804C160.72 37.7015 161.901 35.6879 163.657 34.7975C165.413 33.9072 167.759 34.2151 170.255 35.8876Z" fill="#407BFF"/>
<path opacity="0.2" d="M170.255 35.8876C175.248 39.2159 178.967 46.7713 178.576 52.7458C178.385 55.7579 177.178 57.7966 175.398 58.6536L175.298 58.7035C173.55 59.5356 171.271 59.1778 168.841 57.5469C163.848 54.2186 160.137 46.6632 160.52 40.6804C160.72 37.7015 161.901 35.6879 163.657 34.7975C165.413 33.9072 167.759 34.2151 170.255 35.8876Z" fill="black"/>
<path d="M184.992 11.0663C184.992 11.0663 183.735 21.6505 190.925 36.1871C192.208 38.7965 193.667 41.3153 195.293 43.7259C201.326 52.6542 207.225 56.2073 207.225 56.2073C199.903 54.7095 191.99 53.6444 184.168 55.4667C181.117 56.1853 178.106 57.0658 175.148 58.1044C173.534 58.8949 171.404 58.5621 169.165 57.0643C167.613 55.9875 166.259 54.6503 165.163 53.1119C164.411 52.089 163.754 51 163.199 49.8584C161.735 47.0353 161.019 43.884 161.119 40.7054C161.302 38.0177 162.334 36.1206 163.94 35.3301C166.565 33.6181 169.099 31.7682 171.529 29.7883C177.736 24.7042 181.713 17.7812 184.992 11.0663Z" fill="#407BFF"/>
<path opacity="0.6" d="M184.992 11.0663C184.992 11.0663 183.735 21.6505 190.925 36.1871C192.208 38.7965 193.667 41.3153 195.293 43.7259C201.326 52.6542 207.225 56.2073 207.225 56.2073C199.903 54.7095 191.99 53.6444 184.168 55.4667C181.117 56.1853 178.106 57.0658 175.148 58.1044C173.534 58.8949 171.404 58.5621 169.165 57.0643C167.613 55.9875 166.259 54.6503 165.163 53.1119C164.411 52.089 163.754 51 163.199 49.8584C161.735 47.0353 161.019 43.884 161.119 40.7054C161.302 38.0177 162.334 36.1206 163.94 35.3301C166.565 33.6181 169.099 31.7682 171.529 29.7883C177.736 24.7042 181.713 17.7812 184.992 11.0663Z" fill="white"/>
<path opacity="0.1" d="M195.293 43.7259C201.326 52.6542 207.225 56.2073 207.225 56.2073C199.903 54.7095 191.99 53.6444 184.168 55.4667C181.117 56.1853 178.106 57.0658 175.148 58.1044C173.534 58.8949 171.404 58.5621 169.165 57.0643C167.613 55.9875 166.259 54.6503 165.163 53.1119C172.153 49.1095 184.135 43.1434 195.293 43.7259Z" fill="black"/>
<path d="M206.202 3.73553C211.394 7.21368 216.02 12.614 219.515 18.7881C223.959 26.7013 226.521 35.8709 225.997 43.859C225.057 58.0961 214.681 63.2052 202.823 55.2753C199.999 53.3454 197.449 51.0417 195.243 48.4272C189.412 41.5242 185.432 33.252 183.677 24.3881C183.452 23.1815 183.278 21.9916 183.161 20.8017C183.111 20.3108 183.07 19.8115 183.045 19.3206C183.003 18.6217 182.978 17.931 182.986 17.2487C182.995 16.5664 182.986 15.8342 183.053 15.1435C183.943 0.914741 194.311 -4.1943 206.202 3.73553Z" fill="#407BFF"/>
<path opacity="0.1" d="M219.465 18.7964C223.909 26.7096 226.472 35.8792 225.947 43.8673C225.007 58.1044 214.631 63.2135 202.774 55.2836C199.949 53.3537 197.399 51.0501 195.193 48.4355C197.19 48.76 201.018 47.7282 200.261 45.5898C202.23 47.898 204.496 49.9349 207.001 51.6474C210.404 53.9273 213.657 54.9758 216.42 54.7761C217.569 54.6851 218.68 54.3242 219.663 53.7227C220.647 53.1212 221.474 52.2961 222.078 51.3146C223.591 48.7967 224.425 45.9299 224.5 42.9936C224.949 36.1954 222.877 28.2822 219.249 21.2261C219.249 21.2677 220.223 20.9931 219.465 18.7964Z" fill="black"/>
<path d="M205.986 5.44964C211.219 8.95275 215.904 14.7441 219.249 21.2594C222.877 28.3155 224.949 36.237 224.5 43.0269C224.425 45.9632 223.591 48.83 222.078 51.3478C221.474 52.3294 220.647 53.1545 219.664 53.756C218.68 54.3575 217.569 54.7184 216.42 54.8093C213.666 55.0423 210.404 53.9772 207.001 51.6807C204.496 49.9682 202.23 47.9313 200.261 45.623C199.473 44.7188 198.713 43.7647 197.981 42.7607C196.692 40.9996 195.519 39.1568 194.469 37.2439C194.253 36.8445 194.045 36.4118 193.837 36.0457C193.488 35.38 193.155 34.706 192.838 34.032C191.759 31.7294 190.855 29.3484 190.134 26.9093V26.8261C189.667 25.26 189.292 23.668 189.011 22.0582C188.811 20.9266 188.661 19.8032 188.57 18.7298C188.57 18.2639 188.495 17.8062 188.478 17.3486C188.462 16.8909 188.478 16.2502 188.478 15.6844C188.478 15.1186 188.478 14.6359 188.537 14.12C188.613 11.1841 189.447 8.31776 190.958 5.79912C193.92 1.27254 199.545 1.15605 205.986 5.44964Z" fill="#407BFF"/>
<path opacity="0.4" d="M205.986 5.44964C211.219 8.95275 215.904 14.7441 219.249 21.2594C222.877 28.3155 224.949 36.237 224.5 43.0269C224.425 45.9632 223.591 48.83 222.078 51.3478C221.474 52.3294 220.647 53.1545 219.664 53.756C218.68 54.3575 217.569 54.7184 216.42 54.8093C213.666 55.0423 210.404 53.9772 207.001 51.6807C204.496 49.9682 202.23 47.9313 200.261 45.623C199.473 44.7188 198.713 43.7647 197.981 42.7607C196.692 40.9996 195.519 39.1568 194.469 37.2439C194.253 36.8445 194.045 36.4118 193.837 36.0457C193.488 35.38 193.155 34.706 192.838 34.032C191.759 31.7294 190.855 29.3484 190.134 26.9093V26.8261C189.667 25.26 189.292 23.668 189.011 22.0582C188.811 20.9266 188.661 19.8032 188.57 18.7298C188.57 18.2639 188.495 17.8062 188.478 17.3486C188.462 16.8909 188.478 16.2502 188.478 15.6844C188.478 15.1186 188.478 14.6359 188.537 14.12C188.613 11.1841 189.447 8.31776 190.958 5.79912C193.92 1.27254 199.545 1.15605 205.986 5.44964Z" fill="black"/>
<path d="M201.509 21.9167L208.482 35.796C205.295 37.5185 201.376 39.5904 198.721 43.7508C198.472 43.4263 198.23 43.1018 197.989 42.769C196.698 41.0099 195.525 39.1669 194.478 37.2522C194.253 36.8528 194.045 36.4201 193.837 36.054C193.487 35.3883 193.155 34.7143 192.838 34.0403C191.759 31.7377 190.855 29.3567 190.134 26.9176V26.8344C190.034 26.4849 189.934 26.1354 189.843 25.7776C194.81 26.1271 201.509 21.9167 201.509 21.9167Z" fill="#37474F"/>
<path d="M209.256 34.9639C208.324 36.3535 206.659 36.4284 204.787 35.1803H204.729C203.181 34.0203 201.93 32.5114 201.075 30.7763C200.221 29.0413 199.788 27.1291 199.811 25.1952V25.1286C199.835 24.3051 200.073 23.5019 200.502 22.7988C201.426 21.4175 203.098 21.3343 204.97 22.5907H205.029C206.572 23.7539 207.821 25.2637 208.673 26.9981C209.526 28.7326 209.959 30.6432 209.938 32.5758V32.6424C209.907 33.4646 209.669 34.2658 209.247 34.9723L209.256 34.9639Z" fill="#407BFF"/>
<path d="M183.294 57.1475C183.294 57.1475 185.649 56.4486 186.481 56.3154C188.462 55.8827 189.934 55.1671 191.416 56.6233C191.923 57.1226 192.248 58.0628 192.797 58.4622C193.346 58.8616 194.744 58.7285 195.526 58.8949C196.445 59.0504 197.273 59.5429 197.848 60.2762C198.222 60.8004 198.322 61.7573 198.829 62.0652C199.337 62.3731 200.494 62.3897 201.234 62.6976C202.832 63.3882 203.281 65.5184 203.872 66.9745C204.463 68.4307 205.578 70.7189 204.895 72.4081C204.326 73.6422 203.428 74.6959 202.299 75.4535C201.012 76.4499 199.667 77.3696 198.272 78.2078C197.727 78.489 197.097 78.5596 196.503 78.4061C195.909 78.2527 195.393 77.8858 195.052 77.3757C194.053 76.0859 192.156 76.5436 190.958 75.4369C190.434 74.946 190.284 74.2137 189.776 73.7145C189.142 73.2501 188.661 72.6069 188.395 71.8672C187.987 70.3611 188.72 68.7302 189.027 67.2658C189.196 65.9064 189.054 64.5265 188.611 63.2301C188.337 62.2732 187.896 60.7838 187.047 60.1264L183.294 57.1475Z" fill="#FFA8A7"/>
<path d="M170.422 90.6143C170.622 81.7525 170.081 77.9415 170.097 73.7561C170.097 68.9882 173.426 66.2672 177.361 63.097C179.477 61.4479 181.445 59.6188 183.244 57.6301C184.717 55.9659 186.024 61.0417 185.741 62.9389C185.383 65.2188 183.244 67.8233 181.855 69.8536C178.651 74.48 191.274 80.937 188.312 94.8995C185.399 99.4428 170.422 90.6143 170.422 90.6143Z" fill="#FFA8A7"/>
<path d="M129.941 126.095C129.167 98.4276 116.91 90.8389 112.084 88.8419L92.4298 84.8895C86.4305 85.5468 60.8769 93.2104 53.8291 94.9578C49.3025 96.0728 49.5106 104.893 47.2223 119.421C45.3667 131.22 44.3266 141.164 43.2116 157.614C42.2713 171.402 41.1647 187.104 43.6027 206.608C74.6897 216.094 104.52 220.637 127.644 202.922C127.103 199.036 129.458 166.667 129.649 157.157C129.841 147.646 130.149 133.583 129.941 126.095Z" fill="#FAFAFA"/>
<path d="M48.5287 95.6151L73.4082 87.7186C73.4082 87.7186 75.5134 94.1922 80.1565 106.674C84.7996 119.155 84.5333 126.844 83.1437 147.746C81.7541 168.648 81.3048 213.597 79.3161 232.303C70.0133 232.736 44.5014 225.313 36.8794 215.004C36.8794 215.004 39.5171 177.11 40.707 155.725C41.8969 134.341 37.5367 100.699 48.5287 95.6151Z" fill="#407BFF"/>
<path opacity="0.15" d="M48.5287 95.6151L73.4082 87.7186C73.4082 87.7186 75.5134 94.1922 80.1565 106.674C84.7996 119.155 84.5333 126.844 83.1437 147.746C81.7541 168.648 81.3048 213.597 79.3161 232.303C70.0133 232.736 44.5014 225.313 36.8794 215.004C36.8794 215.004 39.5171 177.11 40.707 155.725C41.8969 134.341 37.5367 100.699 48.5287 95.6151Z" fill="black"/>
<path d="M101.15 88.4924C109.288 92.553 114.239 102.463 115.038 115.61C115.837 128.757 118.749 155.06 119.198 164.97C121.22 208.047 123.417 219.622 123.417 219.622C127.461 217.542 132.487 215.079 133.202 209.154C132.295 199.935 131.73 164.695 131.655 156.466C131.58 148.237 131.114 129.207 130.823 119.147C130.531 109.087 128.093 96.4056 119.681 89.5825C113.749 87.801 107.637 86.6847 101.458 86.2541L101.15 88.4924Z" fill="#407BFF"/>
<path opacity="0.15" d="M101.15 88.4924C109.288 92.553 114.239 102.463 115.038 115.61C115.837 128.757 118.749 155.06 119.198 164.97C121.22 208.047 123.417 219.622 123.417 219.622C127.461 217.542 132.487 215.079 133.202 209.154C132.295 199.935 131.73 164.695 131.655 156.466C131.58 148.237 131.114 129.207 130.823 119.147C130.531 109.087 128.093 96.4056 119.681 89.5825C113.749 87.801 107.637 86.6847 101.458 86.2541L101.15 88.4924Z" fill="black"/>
<path d="M115.629 123.216C115.354 113.572 111.468 96.0062 101.483 91.5961C101.181 90.5997 101.068 89.5554 101.15 88.5174L101.708 83.5748C104.701 84.9457 107.524 86.6603 110.12 88.6838C114.281 92.0122 121.154 101.897 122.46 109.486C118.341 105.267 115.995 111.283 115.629 123.216Z" fill="#407BFF"/>
<path opacity="0.45" d="M115.629 123.216C115.354 113.572 111.468 96.0062 101.483 91.5961C101.181 90.5997 101.068 89.5554 101.15 88.5174L101.708 83.5748C104.701 84.9457 107.524 86.6603 110.12 88.6838C114.281 92.0122 121.154 101.897 122.46 109.486C118.341 105.267 115.995 111.283 115.629 123.216Z" fill="white"/>
<path d="M74.7313 78.1828C72.9589 71.6176 65.6615 65.2854 62.1168 59.752C58.6969 54.4183 56.5667 50.2328 56.392 44.9241C56.2921 41.7871 57.8564 37.3604 60.0865 36.2537C56.3088 24.904 64.5049 18.6882 69.0314 17.1156C71.1567 16.4582 73.236 15.6604 75.2555 14.7275C77.6769 13.4377 78.0513 11.3991 79.9152 9.44369C83.1271 6.11532 89.0017 5.52453 91.6644 9.79316C93.703 6.57297 96.8649 6.3483 100.593 6.93077C102.163 7.13258 103.599 7.92398 104.608 9.14458C105.616 10.3652 106.124 11.9237 106.026 13.5043C110.636 10.3174 115.429 13.3296 116.144 16.1503C116.677 18.2306 116.394 20.0529 117.958 21.8086C119.714 23.7973 122.66 23.4728 123.384 21.6754C124.174 24.6294 123.217 27.0258 119.955 27.1672C120.587 27.9528 121.037 28.8679 121.274 29.8473C121.512 30.8267 121.53 31.8464 121.328 32.8338C121.051 34.0725 120.403 35.1975 119.472 36.0595C118.54 36.9214 117.368 37.4796 116.111 37.6599C115.928 39.3241 115.995 40.8552 115.096 42.3696C114.257 43.9068 113.058 45.2174 111.601 46.1889C106.9 49.0013 101.525 50.2828 96.3157 51.8887L90.1499 53.7859C89.7838 53.9024 87.895 54.1936 87.7036 54.5431L74.7313 78.1828Z" fill="#263238"/>
<path d="M65.8196 70.3195C70.8121 72.6744 73.6745 69.346 73.6745 69.346L74.2154 81.1034L74.4816 93.8345C74.4816 93.8345 87.7951 108.063 105.876 107.206C106.792 103.146 105.469 96.0228 102.548 92.5281L102.099 82.1186C104.754 81.9108 107.394 81.5384 110.004 81.0036C115.171 79.7971 119.198 75.2372 120.147 69.4292C121.145 63.3549 120.654 53.6194 118.699 46.6632C118.166 44.8891 117.885 43.0487 117.867 41.1963C117.909 36.2786 116.76 33.5327 115.121 29.547C108.922 25.4614 92.5464 26.0439 80.8471 34.7642C84.1422 40.8635 83.0522 47.4453 77.9764 50.7737C78.4174 52.7457 79.1414 57.7633 75.8546 57.9796C73.4831 58.1377 73.0421 55.1921 70.3711 52.8123C67.7001 50.4325 61.9753 50.2661 60.1447 54.3267C57.5902 60.0099 60.3943 67.74 65.8196 70.3195Z" fill="#FFA8A7"/>
<path d="M102.107 82.1186C93.7195 81.9272 87.3291 81.6193 82.4364 76.0194C79.366 72.4996 76.4952 66.6583 76.4952 66.6583C76.4952 66.6583 78.0429 73.9225 81.2298 78.6488C83.6762 82.285 89.1097 84.9976 102.232 84.8812L102.107 82.1186Z" fill="#F28F8F"/>
<path d="M95.5336 49.6004C95.5523 50.0617 95.4345 50.5183 95.1949 50.913C94.9554 51.3076 94.6047 51.6228 94.1869 51.8192C93.769 52.0155 93.3025 52.0842 92.8458 52.0167C92.3891 51.9491 91.9625 51.7484 91.6193 51.4395C91.2762 51.1307 91.0317 50.7275 90.9166 50.2804C90.8015 49.8333 90.8209 49.3622 90.9722 48.926C91.1236 48.4899 91.4003 48.1081 91.7676 47.8284C92.135 47.5487 92.5766 47.3836 93.0373 47.3538C93.6659 47.322 94.2815 47.5406 94.7494 47.9617C95.2172 48.3827 95.4992 48.972 95.5336 49.6004Z" fill="#263238"/>
<path d="M93.0873 42.8106L88.2362 45.856C87.8397 45.1898 87.7161 44.396 87.8913 43.6408C88.0666 42.8855 88.5271 42.2273 89.1765 41.8037C89.4971 41.6049 89.8547 41.473 90.2277 41.4161C90.6007 41.3591 90.9814 41.3783 91.3468 41.4724C91.7122 41.5664 92.0548 41.7335 92.3539 41.9635C92.653 42.1935 92.9025 42.4816 93.0873 42.8106Z" fill="#263238"/>
<path d="M114.905 41.8786L109.213 40.8801C109.261 40.507 109.383 40.1474 109.573 39.8231C109.764 39.4987 110.018 39.2164 110.32 38.9931C110.623 38.7698 110.968 38.6103 111.334 38.5242C111.7 38.4381 112.08 38.4271 112.45 38.492C113.215 38.6345 113.897 39.0653 114.353 39.6954C114.81 40.3256 115.007 41.1071 114.905 41.8786Z" fill="#263238"/>
<path d="M114.397 47.204C114.415 47.6634 114.298 48.118 114.06 48.5113C113.821 48.9046 113.473 49.2193 113.058 49.4162C112.642 49.6132 112.178 49.6837 111.723 49.6191C111.268 49.5545 110.841 49.3576 110.497 49.0529C110.153 48.7481 109.906 48.3489 109.786 47.9049C109.667 47.4609 109.681 46.9916 109.826 46.5553C109.971 46.1191 110.241 45.735 110.603 45.4509C110.964 45.1669 111.401 44.9952 111.859 44.9574C112.174 44.9371 112.489 44.9792 112.787 45.0814C113.085 45.1835 113.36 45.3436 113.596 45.5524C113.832 45.7612 114.024 46.0147 114.162 46.2981C114.299 46.5816 114.379 46.8895 114.397 47.204Z" fill="#263238"/>
<path d="M112.175 56.3487L104.379 60.7588L100.36 45.0655C103.272 43.6759 107.857 50.6239 112.175 56.3487Z" fill="#F28F8F"/>
<path d="M96.4156 65.2771L106.401 66.4337C106.354 67.0946 106.175 67.7394 105.874 68.3296C105.573 68.9197 105.156 69.4432 104.648 69.8688C104.14 70.2943 103.552 70.6132 102.918 70.8065C102.284 70.9997 101.618 71.0633 100.959 70.9935C99.6087 70.8145 98.3808 70.1186 97.5334 69.0524C96.686 67.9861 96.2853 66.6327 96.4156 65.2771Z" fill="#B16668"/>
<path d="M97.7553 66.7499C97.3468 66.7515 96.9396 66.7961 96.5404 66.883C96.7558 67.9407 97.2955 68.905 98.0844 69.6417C98.8733 70.3784 99.8722 70.8509 100.942 70.9935C101.48 71.0461 102.022 71.0095 102.548 70.8854C102.482 68.6221 100.376 66.7831 97.7553 66.7499Z" fill="#F28F8F"/>
<path d="M84.0091 126.727C83.4266 107.789 75.6882 106.099 73.2918 112.082C67.4172 101.265 67.9331 92.4698 68.3658 88.9834C70.5209 85.9379 71.3696 83.9908 72.1019 82.8758C72.5545 82.0371 73.3106 81.403 74.2154 81.1034L74.44 85.863C74.44 85.863 75.0308 91.4131 79.9901 98.8104C83.6347 104.244 84.4917 110.842 84.0091 126.727Z" fill="#407BFF"/>
<path opacity="0.45" d="M84.0091 126.727C83.4266 107.789 75.6882 106.099 73.2918 112.082C67.4172 101.265 67.9331 92.4698 68.3658 88.9834C70.5209 85.9379 71.3696 83.9908 72.1019 82.8758C72.5545 82.0371 73.3106 81.403 74.2154 81.1034L74.44 85.863C74.44 85.863 75.0308 91.4131 79.9901 98.8104C83.6347 104.244 84.4917 110.842 84.0091 126.727Z" fill="white"/>
<path d="M53.5295 94.0425C38.4271 98.6107 31.6871 101.132 26.7778 110.892C21.8684 120.653 13.3312 144.8 8.57161 159.495C4.48604 172.059 2.25603 183.501 4.96032 189.284L34.3665 179.748L49.8933 141.746C49.8933 141.746 59.9783 118.173 53.5295 94.0425Z" fill="#455A64"/>
<path d="M33.7008 168.407C35.8476 168.14 37.9944 168.473 40.0331 167.724C40.5361 167.598 41.0068 167.366 41.414 167.045C41.8213 166.724 42.156 166.32 42.3962 165.86C42.8539 164.604 41.9802 163.273 41.0399 162.324C38.3931 159.783 35.0664 158.063 31.4625 157.373C24.4989 155.968 17.2623 157.117 11.0763 160.61C7.3901 162.599 2.88016 165.295 2.62221 169.988C2.539 171.402 2.8552 172.858 2.43083 174.206C2.14792 175.105 1.54881 175.87 1.2243 176.761C0.961565 177.568 0.81858 178.409 0.799923 179.257C0.65651 180.274 0.750494 181.311 1.07451 182.286C1.32414 182.885 1.75683 183.409 2.01478 184.008C2.29082 184.954 2.50758 185.915 2.66381 186.887C3.21299 188.818 5.30986 191.048 7.06558 189.109C8.65487 187.345 9.19574 184.949 10.2359 182.86C11.4424 180.455 13.6974 178.608 15.8192 177.035C18.7064 174.937 21.7914 173.126 25.0305 171.627C27.4681 170.341 30.045 169.339 32.7107 168.64C33.0435 168.506 33.368 168.448 33.7008 168.407Z" fill="#37474F"/>
<path d="M44.6594 158.946C41.8719 162.274 33.4678 163.264 27.5516 164.92C21.6354 166.576 14.3546 169.388 10.3106 175.571C6.74929 181.004 2.98823 185.481 4.76059 189.758C5.98377 192.704 12.7237 194.268 20.6286 194.326C28.5335 194.384 35.6062 187.179 43.9272 182.136C51.0665 177.809 54.345 175.796 54.345 175.796L44.6594 158.946Z" fill="#F28F8F"/>
<path d="M54.6944 163.697C52.1233 161.018 51.6989 158.33 47.8463 156.042C43.9937 153.753 41.5474 153.787 37.4452 151.598C33.343 149.41 30.0063 148.27 26.861 149.218C23.7156 150.167 24.1733 151.973 26.4948 153.495C28.8164 155.018 32.8104 157.04 35.573 159.137C38.3355 161.234 41.0481 162.465 40.9899 165.993C40.7665 171.609 40.2444 177.209 39.4256 182.768C38.5935 188.701 37.2787 193.494 37.7114 194.143C38.1441 194.792 40.6903 195.133 42.3212 191.847C43.9521 188.56 46.2154 176.494 46.2154 176.494C46.2154 176.494 47.2056 184.907 47.5717 190.698C47.9378 196.49 48.0377 200.916 48.1792 202.148C48.3206 203.379 52.4395 202.514 53.1717 198.17C53.9039 193.827 53.2965 180.871 53.2965 180.871C53.2965 180.871 56.6249 186.821 58.7134 190.682C60.802 194.543 63.448 199.785 64.3134 201.083C65.1788 202.381 67.8248 200.159 67.2673 196.681C66.7098 193.203 62.4246 184.624 62.4246 184.624C62.4246 184.624 67.6917 190.349 68.6237 190.915C69.5556 191.48 72.418 191.089 71.511 187.245C70.9036 184.666 69.2976 183.01 65.0706 177.984C60.8436 172.958 60.9102 170.919 59.6371 168.631C57.9396 165.602 56.5666 165.602 54.6944 163.697Z" fill="#FFA8A7"/>
<path d="M43.9438 165.503C48.1958 167.483 52.4478 165.636 53.0469 164.579C52.7141 167.533 46.7896 169.155 43.9438 165.503Z" fill="#F28F8F"/>
<path d="M71.5943 189.458C71.1865 189.991 69.9301 190.149 68.8983 189.225C67.8665 188.302 65.2121 185.248 64.0305 183.842C62.849 182.436 58.78 177.443 58.78 177.443L62.4329 184.624C62.4329 184.624 67.7001 190.349 68.632 190.915C68.9185 191.053 69.2326 191.124 69.5506 191.123C69.8686 191.121 70.1822 191.048 70.4675 190.908C70.7529 190.767 71.0027 190.564 71.1979 190.313C71.3931 190.062 71.5286 189.77 71.5943 189.458Z" fill="#F28F8F"/>
</svg>
