<svg width="1025" height="268" viewBox="0 0 1025 268" fill="none" xmlns="http://www.w3.org/2000/svg">
<path d="M407.088 71.6001V197H376.542V121.796L348.497 197H323.845L295.621 121.617V197H265.075V71.6001H301.159L336.35 158.415L371.183 71.6001H407.088ZM422.981 146.983C422.981 136.741 424.886 127.75 428.697 120.009C432.627 112.269 437.926 106.314 444.595 102.146C451.264 97.9781 458.707 95.8941 466.924 95.8941C473.95 95.8941 480.083 97.3231 485.323 100.181C490.682 103.039 494.791 106.791 497.649 111.435V97.3231H528.195V197H497.649V182.888C494.672 187.532 490.504 191.284 485.145 194.142C479.905 197 473.772 198.429 466.746 198.429C458.648 198.429 451.264 196.345 444.595 192.177C437.926 187.89 432.627 181.876 428.697 174.135C424.886 166.275 422.981 157.225 422.981 146.983ZM497.649 147.162C497.649 139.54 495.505 133.526 491.218 129.12C487.05 124.713 481.929 122.51 475.856 122.51C469.782 122.51 464.602 124.713 460.315 129.12C456.147 133.407 454.063 139.361 454.063 146.983C454.063 154.605 456.147 160.678 460.315 165.203C464.602 169.61 469.782 171.813 475.856 171.813C481.929 171.813 487.05 169.61 491.218 165.203C495.505 160.797 497.649 154.783 497.649 147.162ZM580.84 64.812V197H550.294V64.812H580.84ZM596.903 146.983C596.903 136.741 598.808 127.75 602.619 120.009C606.549 112.269 611.849 106.314 618.517 102.146C625.186 97.9781 632.629 95.8941 640.847 95.8941C647.873 95.8941 654.006 97.3231 659.246 100.181C664.605 103.039 668.713 106.791 671.571 111.435V97.3231H702.117V197H671.571V182.888C668.594 187.532 664.426 191.284 659.067 194.142C653.827 197 647.694 198.429 640.668 198.429C632.57 198.429 625.186 196.345 618.517 192.177C611.849 187.89 606.549 181.876 602.619 174.135C598.808 166.275 596.903 157.225 596.903 146.983ZM671.571 147.162C671.571 139.54 669.428 133.526 665.141 129.12C660.972 124.713 655.852 122.51 649.778 122.51C643.705 122.51 638.524 124.713 634.237 129.12C630.069 133.407 627.985 139.361 627.985 146.983C627.985 154.605 630.069 160.678 634.237 165.203C638.524 169.61 643.705 171.813 649.778 171.813C655.852 171.813 660.972 169.61 665.141 165.203C669.428 160.797 671.571 154.783 671.571 147.162ZM754.762 111.435C757.74 106.791 761.848 103.039 767.088 100.181C772.328 97.3231 778.461 95.8941 785.487 95.8941C793.704 95.8941 801.147 97.9781 807.816 102.146C814.485 106.314 819.725 112.269 823.536 120.009C827.466 127.75 829.431 136.741 829.431 146.983C829.431 157.225 827.466 166.275 823.536 174.135C819.725 181.876 814.485 187.89 807.816 192.177C801.147 196.345 793.704 198.429 785.487 198.429C778.58 198.429 772.447 197 767.088 194.142C761.848 191.284 757.74 187.592 754.762 183.067V244.516H724.216V97.3231H754.762V111.435ZM798.349 146.983C798.349 139.361 796.205 133.407 791.918 129.12C787.75 124.713 782.569 122.51 776.377 122.51C770.303 122.51 765.123 124.713 760.836 129.12C756.668 133.526 754.584 139.54 754.584 147.162C754.584 154.783 756.668 160.797 760.836 165.203C765.123 169.61 770.303 171.813 776.377 171.813C782.45 171.813 787.631 169.61 791.918 165.203C796.205 160.678 798.349 154.605 798.349 146.983ZM890.829 198.429C881.063 198.429 872.251 196.345 864.391 192.177C856.65 188.009 850.517 182.054 845.992 174.314C841.586 166.573 839.382 157.522 839.382 147.162C839.382 136.92 841.645 127.929 846.17 120.188C850.696 112.328 856.888 106.314 864.748 102.146C872.608 97.9781 881.421 95.8941 891.186 95.8941C900.951 95.8941 909.764 97.9781 917.623 102.146C925.483 106.314 931.676 112.328 936.201 120.188C940.727 127.929 942.989 136.92 942.989 147.162C942.989 157.403 940.667 166.454 936.023 174.314C931.497 182.054 925.245 188.009 917.266 192.177C909.406 196.345 900.594 198.429 890.829 198.429ZM890.829 171.991C896.664 171.991 901.606 169.848 905.655 165.561C909.823 161.274 911.907 155.14 911.907 147.162C911.907 139.183 909.883 133.05 905.834 128.762C901.904 124.475 897.021 122.332 891.186 122.332C885.231 122.332 880.289 124.475 876.359 128.762C872.429 132.931 870.464 139.064 870.464 147.162C870.464 155.14 872.37 161.274 876.181 165.561C880.111 169.848 884.993 171.991 890.829 171.991ZM989.741 113.936C993.313 108.458 997.779 104.171 1003.14 101.074C1008.5 97.859 1014.45 96.2513 1021 96.2513V128.584H1012.61C1004.98 128.584 999.268 130.251 995.457 133.586C991.646 136.801 989.741 142.517 989.741 150.734V197H959.195V97.3231H989.741V113.936Z" fill="#0090D4"/>
<path opacity="0.2" d="M85.3986 259C116.359 259 141.457 245.846 141.457 229.619C141.457 213.392 116.359 200.238 85.3986 200.238C54.4386 200.238 29.3406 213.392 29.3406 229.619C29.3406 245.846 54.4386 259 85.3986 259Z" fill="black"/>
<path d="M109.879 245.994C109.879 245.994 127.311 239.712 132.994 230.501C132.47 220.291 131.488 201.96 131.33 202.077L98.4708 205.48L105.419 234.287L109.879 245.994Z" fill="#37474F"/>
<path d="M122.693 227.963C125.772 222.629 128.451 209.823 128.46 205.496H39.5838C39.5838 205.496 37.9196 224.701 38.061 232.423C38.061 232.423 38.061 232.481 38.061 232.506C39.9166 237.091 44.2851 239.903 54.2369 244.222C72.6594 252.202 97.6555 250.987 109.871 245.986V241.917C109.871 241.917 119.614 233.297 122.693 227.963Z" fill="#455A64"/>
<path d="M145.517 118.618C159.996 131.249 162.65 133.828 162.65 133.828C166.636 117.245 169.931 105.654 170.439 98.6143C170.946 91.5748 180.041 76.1478 180.041 76.1478C187.288 78.02 192.98 89.4613 189.31 101.111C186.639 109.59 191.69 130.234 186.498 157.501C183.777 171.78 175.872 175.158 160.528 166.496C149.778 160.43 130.365 146.376 130.365 146.376L115.629 97.3661C127.985 99.5462 131.413 106.311 145.517 118.618Z" fill="#FFA8A7"/>
<path d="M118 97.1498C125.006 98.531 129.824 102.142 137.82 110.097C145.817 118.052 162.733 133.396 162.733 133.396C160.164 141.03 159.904 149.253 161.984 157.035C164.98 168.552 169.615 170.49 169.615 170.49C169.615 170.49 165.962 171.547 156.301 165.315C146.641 159.082 125.131 143.68 125.131 143.68L118 97.1498Z" fill="#455A64"/>
<path d="M163.566 130.051C163.566 130.051 161.901 156.486 170.006 163.85C178.11 171.214 183.319 166.347 183.319 166.347C183.319 166.347 182.895 173.835 177.969 173.611C173.043 173.386 172.277 173.752 169.382 173.661C166.486 173.569 161.943 173.17 159.888 167.387C153.83 155.679 156.06 140.31 160.27 131.058C161.677 131.773 161.668 129.751 163.566 130.051Z" fill="#37474F"/>
<path d="M200.885 76.855C200.693 81.6063 198.846 84.8348 197.881 87.2728C194.136 96.7337 192.056 95.5938 188.312 102.9L180.465 82.6048C177.045 76.6054 179.741 73.9427 185.025 72.6863L200.885 76.855Z" fill="#F28F8F"/>
<path d="M154.687 68.634C156.576 69.8973 158.797 70.5722 161.07 70.5732C163.342 70.5742 165.564 69.9014 167.455 68.6397C169.345 67.378 170.818 65.5842 171.689 63.4851C172.56 61.3859 172.789 59.0757 172.347 56.8465C171.905 54.6174 170.811 52.5693 169.205 50.9614C167.599 49.3535 165.553 48.2578 163.324 47.8131C161.095 47.3683 158.785 47.5943 156.685 48.4626C154.585 49.3309 152.789 50.8024 151.525 52.6911C150.686 53.9455 150.101 55.3529 149.806 56.8331C149.511 58.3132 149.51 59.837 149.803 61.3175C150.097 62.798 150.679 64.2062 151.517 65.4616C152.355 66.7169 153.432 67.7949 154.687 68.634Z" fill="#455A64"/>
<path d="M159.089 64.6732L172.527 58.0165C172.781 60.7583 172.042 63.5002 170.445 65.743C168.847 67.9858 166.498 69.5804 163.823 70.2367C161.149 70.8929 158.328 70.567 155.874 69.3184C153.42 68.0697 151.496 65.9814 150.452 63.4334C152.307 65.913 154.77 66.7951 159.089 64.6732Z" fill="#37474F"/>
<path d="M168.932 61.6194L169.531 52.3916C177.104 60.6327 185.809 67.7571 195.385 73.5516L195.143 77.2461C189.044 75.4155 178.435 68.8087 168.932 61.6194Z" fill="#37474F"/>
<path d="M163.457 69.6658L168.899 69.2497L179.408 76.1727C181.722 77.6945 184.389 78.5929 187.152 78.781C189.914 78.969 192.678 78.4403 195.177 77.2461C188.054 74.7499 177.636 68.0931 168.932 61.6194L163.457 69.6658Z" fill="#455A64"/>
<path d="M181.289 68.7588V69.0334C181.26 69.268 181.176 69.4926 181.045 69.6891C180.913 69.8856 180.738 70.0486 180.532 70.165L178.626 71.1053C178.235 71.2967 178.219 71.6461 178.576 71.8875L178.801 72.0372C179.005 72.1585 179.235 72.2299 179.472 72.2458C179.709 72.2617 179.947 72.2216 180.166 72.1288L182.096 71.1802C182.302 71.0649 182.478 70.902 182.608 70.7052C182.738 70.5083 182.819 70.2832 182.845 70.0485V69.7906C182.846 69.5527 182.79 69.3179 182.683 69.1054C182.576 68.8929 182.421 68.7086 182.229 68.5674L182.005 68.4093C181.63 68.1847 181.314 68.3427 181.289 68.7588Z" fill="#407BFF"/>
<path d="M184.875 70.8307V71.097C184.846 71.3337 184.761 71.5601 184.628 71.7581C184.495 71.9561 184.318 72.1202 184.11 72.2369L182.213 73.1689C181.822 73.3686 181.797 73.7181 182.163 73.9594L182.387 74.1091C182.592 74.2304 182.822 74.3018 183.059 74.3177C183.296 74.3336 183.533 74.2935 183.752 74.2007L185.683 73.2521C185.889 73.1361 186.064 72.9718 186.193 72.7732C186.322 72.5747 186.401 72.3479 186.423 72.1121V71.8542C186.424 71.6163 186.368 71.3815 186.261 71.169C186.154 70.9565 185.999 70.7722 185.807 70.631L185.583 70.4812C185.217 70.2399 184.9 70.423 184.875 70.8307Z" fill="#407BFF"/>
<path d="M188.462 72.9193V73.1938C188.43 73.4298 188.344 73.6552 188.211 73.8528C188.079 74.0505 187.902 74.215 187.696 74.3338L185.799 75.2658C185.408 75.4571 185.383 75.8066 185.749 76.0562L185.974 76.1977C186.176 76.3208 186.404 76.3934 186.641 76.4093C186.877 76.4252 187.113 76.3841 187.33 76.2892L189.26 75.3406C189.467 75.2264 189.643 75.0639 189.774 74.8668C189.904 74.6697 189.985 74.4441 190.009 74.209V73.9511C190.006 73.7138 189.949 73.4804 189.842 73.2685C189.736 73.0566 189.582 72.8717 189.393 72.7279L189.169 72.5781C188.803 72.2869 188.487 72.445 188.462 72.9193Z" fill="#407BFF"/>
<path d="M163.657 42.7892C162.068 43.5714 160.953 45.2855 160.603 47.8483C160.603 48.1146 160.537 48.3892 160.52 48.6804C160.503 48.9717 160.52 49.3544 160.52 49.7039C160.522 50.2799 160.561 50.8552 160.636 51.4263C160.77 52.523 160.998 53.6061 161.319 54.6632C162.209 57.5982 163.687 60.3216 165.662 62.6679C166.596 63.7638 167.671 64.7318 168.858 65.5469C171.287 67.2111 173.567 67.494 175.315 66.7035L169.323 69.6575C168.151 70.1615 166.868 70.3572 165.598 70.2262C164.328 70.0951 163.113 69.6415 162.068 68.9086C160.93 68.1363 159.9 67.2156 159.006 66.171C156.961 63.7949 155.436 61.0172 154.529 58.0165C154.204 56.9632 153.976 55.8826 153.847 54.788C153.771 54.2141 153.732 53.636 153.73 53.0572C153.73 52.7161 153.73 52.3749 153.73 52.0421C153.73 51.7092 153.78 51.4846 153.822 51.21C153.996 50.0881 154.422 49.0205 155.07 48.0878C155.717 47.1551 156.568 46.3818 157.558 45.8263L157.724 45.7431C157.794 45.7049 157.866 45.6715 157.94 45.6433L163.657 42.7892Z" fill="#407BFF"/>
<path opacity="0.1" d="M169.299 69.6575C168.126 70.1615 166.843 70.3572 165.573 70.2262C164.303 70.0951 163.088 69.6415 162.043 68.9086C160.905 68.1363 159.875 67.2156 158.981 66.171L165.637 62.6762C166.571 63.7721 167.646 64.7401 168.833 65.5552C171.262 67.2194 173.542 67.5023 175.29 66.7119L169.299 69.6575Z" fill="black"/>
<path d="M170.255 43.8876C175.248 47.2159 178.967 54.7713 178.576 60.7458C178.385 63.7579 177.178 65.7966 175.398 66.6536L175.298 66.7035C173.55 67.5356 171.271 67.1778 168.841 65.5469C163.848 62.2186 160.137 54.6632 160.52 48.6804C160.72 45.7015 161.901 43.6879 163.657 42.7975C165.413 41.9072 167.759 42.2151 170.255 43.8876Z" fill="#407BFF"/>
<path opacity="0.2" d="M170.255 43.8876C175.248 47.2159 178.967 54.7713 178.576 60.7458C178.385 63.7579 177.178 65.7966 175.398 66.6536L175.298 66.7035C173.55 67.5356 171.271 67.1778 168.841 65.5469C163.848 62.2186 160.137 54.6632 160.52 48.6804C160.72 45.7015 161.901 43.6879 163.657 42.7975C165.413 41.9072 167.759 42.2151 170.255 43.8876Z" fill="black"/>
<path d="M184.992 19.0663C184.992 19.0663 183.735 29.6505 190.925 44.1871C192.208 46.7965 193.667 49.3153 195.293 51.7259C201.326 60.6542 207.225 64.2073 207.225 64.2073C199.903 62.7095 191.99 61.6444 184.168 63.4667C181.117 64.1853 178.106 65.0658 175.148 66.1044C173.534 66.8949 171.404 66.5621 169.165 65.0643C167.613 63.9875 166.259 62.6503 165.163 61.1119C164.411 60.089 163.754 59 163.199 57.8584C161.735 55.0353 161.019 51.884 161.119 48.7054C161.302 46.0177 162.334 44.1206 163.94 43.3301C166.565 41.6181 169.099 39.7682 171.529 37.7883C177.736 32.7042 181.713 25.7812 184.992 19.0663Z" fill="#407BFF"/>
<path opacity="0.6" d="M184.992 19.0663C184.992 19.0663 183.735 29.6505 190.925 44.1871C192.208 46.7965 193.667 49.3153 195.293 51.7259C201.326 60.6542 207.225 64.2073 207.225 64.2073C199.903 62.7095 191.99 61.6444 184.168 63.4667C181.117 64.1853 178.106 65.0658 175.148 66.1044C173.534 66.8949 171.404 66.5621 169.165 65.0643C167.613 63.9875 166.259 62.6503 165.163 61.1119C164.411 60.089 163.754 59 163.199 57.8584C161.735 55.0353 161.019 51.884 161.119 48.7054C161.302 46.0177 162.334 44.1206 163.94 43.3301C166.565 41.6181 169.099 39.7682 171.529 37.7883C177.736 32.7042 181.713 25.7812 184.992 19.0663Z" fill="white"/>
<path opacity="0.1" d="M195.293 51.7259C201.326 60.6542 207.225 64.2073 207.225 64.2073C199.903 62.7095 191.99 61.6444 184.168 63.4667C181.117 64.1853 178.106 65.0658 175.148 66.1044C173.534 66.8949 171.404 66.5621 169.165 65.0643C167.613 63.9875 166.259 62.6503 165.163 61.1119C172.153 57.1095 184.135 51.1434 195.293 51.7259Z" fill="black"/>
<path d="M206.202 11.7355C211.394 15.2137 216.02 20.614 219.515 26.7881C223.959 34.7013 226.521 43.8709 225.997 51.859C225.057 66.0961 214.681 71.2052 202.823 63.2753C199.999 61.3454 197.449 59.0417 195.243 56.4272C189.412 49.5242 185.432 41.252 183.677 32.3881C183.452 31.1815 183.278 29.9916 183.161 28.8017C183.111 28.3108 183.07 27.8115 183.045 27.3206C183.003 26.6217 182.978 25.931 182.986 25.2487C182.995 24.5664 182.986 23.8342 183.053 23.1435C183.943 8.91474 194.311 3.8057 206.202 11.7355Z" fill="#407BFF"/>
<path opacity="0.1" d="M219.465 26.7964C223.909 34.7096 226.472 43.8792 225.947 51.8673C225.007 66.1044 214.631 71.2135 202.774 63.2836C199.949 61.3537 197.399 59.0501 195.193 56.4355C197.19 56.76 201.018 55.7282 200.261 53.5898C202.23 55.898 204.496 57.9349 207.001 59.6474C210.404 61.9273 213.657 62.9758 216.42 62.7761C217.569 62.6851 218.68 62.3242 219.663 61.7227C220.647 61.1212 221.474 60.2961 222.078 59.3146C223.591 56.7967 224.425 53.9299 224.5 50.9936C224.949 44.1954 222.877 36.2822 219.249 29.2261C219.249 29.2677 220.223 28.9931 219.465 26.7964Z" fill="black"/>
<path d="M205.986 13.4496C211.219 16.9527 215.904 22.7441 219.249 29.2594C222.877 36.3155 224.949 44.237 224.5 51.0269C224.425 53.9632 223.591 56.83 222.078 59.3478C221.474 60.3294 220.647 61.1545 219.664 61.756C218.68 62.3575 217.569 62.7184 216.42 62.8093C213.666 63.0423 210.404 61.9772 207.001 59.6807C204.496 57.9682 202.23 55.9313 200.261 53.623C199.473 52.7188 198.713 51.7647 197.981 50.7607C196.692 48.9996 195.519 47.1568 194.469 45.2439C194.253 44.8445 194.045 44.4118 193.837 44.0457C193.488 43.38 193.155 42.706 192.838 42.032C191.759 39.7294 190.855 37.3484 190.134 34.9093V34.8261C189.667 33.26 189.292 31.668 189.011 30.0582C188.811 28.9266 188.661 27.8032 188.57 26.7298C188.57 26.2639 188.495 25.8062 188.478 25.3486C188.462 24.8909 188.478 24.2502 188.478 23.6844C188.478 23.1186 188.478 22.6359 188.537 22.12C188.613 19.1841 189.447 16.3178 190.958 13.7991C193.92 9.27254 199.545 9.15605 205.986 13.4496Z" fill="#407BFF"/>
<path opacity="0.4" d="M205.986 13.4496C211.219 16.9527 215.904 22.7441 219.249 29.2594C222.877 36.3155 224.949 44.237 224.5 51.0269C224.425 53.9632 223.591 56.83 222.078 59.3478C221.474 60.3294 220.647 61.1545 219.664 61.756C218.68 62.3575 217.569 62.7184 216.42 62.8093C213.666 63.0423 210.404 61.9772 207.001 59.6807C204.496 57.9682 202.23 55.9313 200.261 53.623C199.473 52.7188 198.713 51.7647 197.981 50.7607C196.692 48.9996 195.519 47.1568 194.469 45.2439C194.253 44.8445 194.045 44.4118 193.837 44.0457C193.488 43.38 193.155 42.706 192.838 42.032C191.759 39.7294 190.855 37.3484 190.134 34.9093V34.8261C189.667 33.26 189.292 31.668 189.011 30.0582C188.811 28.9266 188.661 27.8032 188.57 26.7298C188.57 26.2639 188.495 25.8062 188.478 25.3486C188.462 24.8909 188.478 24.2502 188.478 23.6844C188.478 23.1186 188.478 22.6359 188.537 22.12C188.613 19.1841 189.447 16.3178 190.958 13.7991C193.92 9.27254 199.545 9.15605 205.986 13.4496Z" fill="black"/>
<path d="M201.509 29.9167L208.482 43.796C205.295 45.5185 201.376 47.5904 198.721 51.7508C198.472 51.4263 198.23 51.1018 197.989 50.769C196.698 49.0099 195.525 47.1669 194.478 45.2522C194.253 44.8528 194.045 44.4201 193.837 44.054C193.487 43.3883 193.155 42.7143 192.838 42.0403C191.759 39.7377 190.855 37.3567 190.134 34.9176V34.8344C190.034 34.4849 189.934 34.1354 189.843 33.7776C194.81 34.1271 201.509 29.9167 201.509 29.9167Z" fill="#37474F"/>
<path d="M209.256 42.9639C208.324 44.3535 206.659 44.4284 204.787 43.1803H204.729C203.181 42.0203 201.93 40.5114 201.075 38.7763C200.221 37.0413 199.788 35.1291 199.811 33.1952V33.1286C199.835 32.3051 200.073 31.5019 200.502 30.7988C201.426 29.4175 203.098 29.3343 204.97 30.5907H205.029C206.572 31.7539 207.821 33.2637 208.673 34.9981C209.526 36.7326 209.959 38.6432 209.938 40.5758V40.6424C209.907 41.4646 209.669 42.2658 209.247 42.9723L209.256 42.9639Z" fill="#407BFF"/>
<path d="M183.294 65.1475C183.294 65.1475 185.649 64.4486 186.481 64.3154C188.462 63.8827 189.934 63.1671 191.416 64.6233C191.923 65.1226 192.248 66.0628 192.797 66.4622C193.346 66.8616 194.744 66.7285 195.526 66.8949C196.445 67.0504 197.273 67.5429 197.848 68.2762C198.222 68.8004 198.322 69.7573 198.829 70.0652C199.337 70.3731 200.494 70.3897 201.234 70.6976C202.832 71.3882 203.281 73.5184 203.872 74.9745C204.463 76.4307 205.578 78.7189 204.895 80.4081C204.326 81.6422 203.428 82.6959 202.299 83.4535C201.012 84.4499 199.667 85.3696 198.272 86.2078C197.727 86.489 197.097 86.5596 196.503 86.4061C195.909 86.2527 195.393 85.8858 195.052 85.3757C194.053 84.0859 192.156 84.5436 190.958 83.4369C190.434 82.946 190.284 82.2137 189.776 81.7145C189.142 81.2501 188.661 80.6069 188.395 79.8672C187.987 78.3611 188.72 76.7302 189.027 75.2658C189.196 73.9064 189.054 72.5265 188.611 71.2301C188.337 70.2732 187.896 68.7838 187.047 68.1264L183.294 65.1475Z" fill="#FFA8A7"/>
<path d="M170.422 98.6143C170.622 89.7525 170.081 85.9415 170.097 81.7561C170.097 76.9882 173.426 74.2672 177.361 71.097C179.477 69.4479 181.445 67.6188 183.244 65.6301C184.717 63.9659 186.024 69.0417 185.741 70.9389C185.383 73.2188 183.244 75.8233 181.855 77.8536C178.651 82.48 191.274 88.937 188.312 102.9C185.399 107.443 170.422 98.6143 170.422 98.6143Z" fill="#FFA8A7"/>
<path d="M129.941 134.095C129.167 106.428 116.91 98.8389 112.084 96.8419L92.4298 92.8895C86.4305 93.5468 60.8769 101.21 53.8291 102.958C49.3025 104.073 49.5106 112.893 47.2223 127.421C45.3667 139.22 44.3266 149.164 43.2116 165.614C42.2713 179.402 41.1647 195.104 43.6027 214.608C74.6897 224.094 104.52 228.637 127.644 210.922C127.103 207.036 129.458 174.667 129.649 165.157C129.841 155.646 130.149 141.583 129.941 134.095Z" fill="#FAFAFA"/>
<path d="M48.5287 103.615L73.4082 95.7186C73.4082 95.7186 75.5134 102.192 80.1565 114.674C84.7996 127.155 84.5333 134.844 83.1437 155.746C81.7541 176.648 81.3048 221.597 79.3161 240.303C70.0133 240.736 44.5014 233.313 36.8794 223.004C36.8794 223.004 39.5171 185.11 40.707 163.725C41.8969 142.341 37.5367 108.699 48.5287 103.615Z" fill="#407BFF"/>
<path opacity="0.15" d="M48.5287 103.615L73.4082 95.7186C73.4082 95.7186 75.5134 102.192 80.1565 114.674C84.7996 127.155 84.5333 134.844 83.1437 155.746C81.7541 176.648 81.3048 221.597 79.3161 240.303C70.0133 240.736 44.5014 233.313 36.8794 223.004C36.8794 223.004 39.5171 185.11 40.707 163.725C41.8969 142.341 37.5367 108.699 48.5287 103.615Z" fill="black"/>
<path d="M101.15 96.4924C109.288 100.553 114.239 110.463 115.038 123.61C115.837 136.757 118.749 163.06 119.198 172.97C121.22 216.047 123.417 227.622 123.417 227.622C127.461 225.542 132.487 223.079 133.202 217.154C132.295 207.935 131.73 172.695 131.655 164.466C131.58 156.237 131.114 137.207 130.823 127.147C130.531 117.087 128.093 104.406 119.681 97.5825C113.749 95.801 107.637 94.6847 101.458 94.2541L101.15 96.4924Z" fill="#407BFF"/>
<path opacity="0.15" d="M101.15 96.4924C109.288 100.553 114.239 110.463 115.038 123.61C115.837 136.757 118.749 163.06 119.198 172.97C121.22 216.047 123.417 227.622 123.417 227.622C127.461 225.542 132.487 223.079 133.202 217.154C132.295 207.935 131.73 172.695 131.655 164.466C131.58 156.237 131.114 137.207 130.823 127.147C130.531 117.087 128.093 104.406 119.681 97.5825C113.749 95.801 107.637 94.6847 101.458 94.2541L101.15 96.4924Z" fill="black"/>
<path d="M115.629 131.216C115.354 121.572 111.468 104.006 101.483 99.5961C101.181 98.5997 101.068 97.5554 101.15 96.5174L101.708 91.5748C104.701 92.9457 107.524 94.6603 110.12 96.6838C114.281 100.012 121.154 109.897 122.46 117.486C118.341 113.267 115.995 119.283 115.629 131.216Z" fill="#407BFF"/>
<path opacity="0.45" d="M115.629 131.216C115.354 121.572 111.468 104.006 101.483 99.5961C101.181 98.5997 101.068 97.5554 101.15 96.5174L101.708 91.5748C104.701 92.9457 107.524 94.6603 110.12 96.6838C114.281 100.012 121.154 109.897 122.46 117.486C118.341 113.267 115.995 119.283 115.629 131.216Z" fill="white"/>
<path d="M74.7313 86.1828C72.9589 79.6176 65.6615 73.2854 62.1168 67.752C58.6969 62.4183 56.5667 58.2328 56.392 52.9241C56.2921 49.7871 57.8564 45.3604 60.0865 44.2537C56.3088 32.904 64.5049 26.6882 69.0314 25.1156C71.1567 24.4582 73.236 23.6604 75.2555 22.7275C77.6769 21.4377 78.0513 19.3991 79.9152 17.4437C83.1271 14.1153 89.0017 13.5245 91.6644 17.7932C93.703 14.573 96.8649 14.3483 100.593 14.9308C102.163 15.1326 103.599 15.924 104.608 17.1446C105.616 18.3652 106.124 19.9237 106.026 21.5043C110.636 18.3174 115.429 21.3296 116.144 24.1503C116.677 26.2306 116.394 28.0529 117.958 29.8086C119.714 31.7973 122.66 31.4728 123.384 29.6754C124.174 32.6294 123.217 35.0258 119.955 35.1672C120.587 35.9528 121.037 36.8679 121.274 37.8473C121.512 38.8267 121.53 39.8464 121.328 40.8338C121.051 42.0725 120.403 43.1975 119.472 44.0595C118.54 44.9214 117.368 45.4796 116.111 45.6599C115.928 47.3241 115.995 48.8552 115.096 50.3696C114.257 51.9068 113.058 53.2174 111.601 54.1889C106.9 57.0013 101.525 58.2828 96.3157 59.8887L90.1499 61.7859C89.7838 61.9024 87.895 62.1936 87.7036 62.5431L74.7313 86.1828Z" fill="#263238"/>
<path d="M65.8196 78.3195C70.8121 80.6744 73.6745 77.346 73.6745 77.346L74.2154 89.1034L74.4816 101.834C74.4816 101.834 87.7951 116.063 105.876 115.206C106.792 111.146 105.469 104.023 102.548 100.528L102.099 90.1186C104.754 89.9108 107.394 89.5384 110.004 89.0036C115.171 87.7971 119.198 83.2372 120.147 77.4292C121.145 71.3549 120.654 61.6194 118.699 54.6632C118.166 52.8891 117.885 51.0487 117.867 49.1963C117.909 44.2786 116.76 41.5327 115.121 37.547C108.922 33.4614 92.5464 34.0439 80.8471 42.7642C84.1422 48.8635 83.0522 55.4453 77.9764 58.7737C78.4174 60.7457 79.1414 65.7633 75.8546 65.9796C73.4831 66.1377 73.0421 63.1921 70.3711 60.8123C67.7001 58.4325 61.9753 58.2661 60.1447 62.3267C57.5902 68.0099 60.3943 75.74 65.8196 78.3195Z" fill="#FFA8A7"/>
<path d="M102.107 90.1186C93.7195 89.9272 87.3291 89.6193 82.4364 84.0194C79.366 80.4996 76.4952 74.6583 76.4952 74.6583C76.4952 74.6583 78.0429 81.9225 81.2298 86.6488C83.6762 90.285 89.1097 92.9976 102.232 92.8812L102.107 90.1186Z" fill="#F28F8F"/>
<path d="M95.5336 57.6004C95.5523 58.0617 95.4345 58.5183 95.1949 58.913C94.9554 59.3076 94.6047 59.6228 94.1869 59.8192C93.769 60.0155 93.3025 60.0842 92.8458 60.0167C92.3891 59.9491 91.9625 59.7484 91.6193 59.4395C91.2762 59.1307 91.0317 58.7275 90.9166 58.2804C90.8015 57.8333 90.8209 57.3622 90.9722 56.926C91.1236 56.4899 91.4003 56.1081 91.7676 55.8284C92.135 55.5487 92.5766 55.3836 93.0373 55.3538C93.6659 55.322 94.2815 55.5406 94.7494 55.9617C95.2172 56.3827 95.4992 56.972 95.5336 57.6004Z" fill="#263238"/>
<path d="M93.0873 50.8106L88.2362 53.856C87.8397 53.1898 87.7161 52.396 87.8913 51.6408C88.0666 50.8855 88.5271 50.2273 89.1765 49.8037C89.4971 49.6049 89.8547 49.473 90.2277 49.4161C90.6007 49.3591 90.9814 49.3783 91.3468 49.4724C91.7122 49.5664 92.0548 49.7335 92.3539 49.9635C92.653 50.1935 92.9025 50.4816 93.0873 50.8106Z" fill="#263238"/>
<path d="M114.905 49.8786L109.213 48.8801C109.261 48.507 109.383 48.1474 109.573 47.8231C109.764 47.4987 110.018 47.2164 110.32 46.9931C110.623 46.7698 110.968 46.6103 111.334 46.5242C111.7 46.4381 112.08 46.4271 112.45 46.492C113.215 46.6345 113.897 47.0653 114.353 47.6954C114.81 48.3256 115.007 49.1071 114.905 49.8786Z" fill="#263238"/>
<path d="M114.397 55.204C114.415 55.6634 114.298 56.118 114.06 56.5113C113.821 56.9046 113.473 57.2193 113.058 57.4162C112.642 57.6132 112.178 57.6837 111.723 57.6191C111.268 57.5545 110.841 57.3576 110.497 57.0529C110.153 56.7481 109.906 56.3489 109.786 55.9049C109.667 55.4609 109.681 54.9916 109.826 54.5553C109.971 54.1191 110.241 53.735 110.603 53.4509C110.964 53.1669 111.401 52.9952 111.859 52.9574C112.174 52.9371 112.489 52.9792 112.787 53.0814C113.085 53.1835 113.36 53.3436 113.596 53.5524C113.832 53.7612 114.024 54.0147 114.162 54.2981C114.299 54.5816 114.379 54.8895 114.397 55.204Z" fill="#263238"/>
<path d="M112.175 64.3487L104.379 68.7588L100.36 53.0655C103.272 51.6759 107.857 58.6239 112.175 64.3487Z" fill="#F28F8F"/>
<path d="M96.4156 73.2771L106.401 74.4337C106.354 75.0946 106.175 75.7394 105.874 76.3296C105.573 76.9197 105.156 77.4432 104.648 77.8688C104.14 78.2943 103.552 78.6132 102.918 78.8065C102.284 78.9997 101.618 79.0633 100.959 78.9935C99.6087 78.8145 98.3808 78.1186 97.5334 77.0524C96.686 75.9861 96.2853 74.6327 96.4156 73.2771Z" fill="#B16668"/>
<path d="M97.7553 74.7499C97.3468 74.7515 96.9396 74.7961 96.5404 74.883C96.7558 75.9407 97.2955 76.905 98.0844 77.6417C98.8733 78.3784 99.8722 78.8509 100.942 78.9935C101.48 79.0461 102.022 79.0095 102.548 78.8854C102.482 76.6221 100.376 74.7831 97.7553 74.7499Z" fill="#F28F8F"/>
<path d="M84.0091 134.727C83.4266 115.789 75.6882 114.099 73.2918 120.082C67.4172 109.265 67.9331 100.47 68.3658 96.9834C70.5209 93.9379 71.3696 91.9908 72.1019 90.8758C72.5545 90.0371 73.3106 89.403 74.2154 89.1034L74.44 93.863C74.44 93.863 75.0308 99.4131 79.9901 106.81C83.6347 112.244 84.4917 118.842 84.0091 134.727Z" fill="#407BFF"/>
<path opacity="0.45" d="M84.0091 134.727C83.4266 115.789 75.6882 114.099 73.2918 120.082C67.4172 109.265 67.9331 100.47 68.3658 96.9834C70.5209 93.9379 71.3696 91.9908 72.1019 90.8758C72.5545 90.0371 73.3106 89.403 74.2154 89.1034L74.44 93.863C74.44 93.863 75.0308 99.4131 79.9901 106.81C83.6347 112.244 84.4917 118.842 84.0091 134.727Z" fill="white"/>
<path d="M53.5295 102.042C38.4271 106.611 31.6871 109.132 26.7778 118.892C21.8684 128.653 13.3312 152.8 8.57161 167.495C4.48604 180.059 2.25603 191.501 4.96032 197.284L34.3665 187.748L49.8933 149.746C49.8933 149.746 59.9783 126.173 53.5295 102.042Z" fill="#455A64"/>
<path d="M33.7008 176.407C35.8476 176.14 37.9944 176.473 40.0331 175.724C40.5361 175.598 41.0068 175.366 41.414 175.045C41.8213 174.724 42.156 174.32 42.3962 173.86C42.8539 172.604 41.9802 171.273 41.0399 170.324C38.3931 167.783 35.0664 166.063 31.4625 165.373C24.4989 163.968 17.2623 165.117 11.0763 168.61C7.3901 170.599 2.88016 173.295 2.62221 177.988C2.539 179.402 2.8552 180.858 2.43083 182.206C2.14792 183.105 1.54881 183.87 1.2243 184.761C0.961565 185.568 0.81858 186.409 0.799923 187.257C0.65651 188.274 0.750494 189.311 1.07451 190.286C1.32414 190.885 1.75683 191.409 2.01478 192.008C2.29082 192.954 2.50758 193.915 2.66381 194.887C3.21299 196.818 5.30986 199.048 7.06558 197.109C8.65487 195.345 9.19574 192.949 10.2359 190.86C11.4424 188.455 13.6974 186.608 15.8192 185.035C18.7064 182.937 21.7914 181.126 25.0305 179.627C27.4681 178.341 30.045 177.339 32.7107 176.64C33.0435 176.506 33.368 176.448 33.7008 176.407Z" fill="#37474F"/>
<path d="M44.6594 166.946C41.8719 170.274 33.4678 171.264 27.5516 172.92C21.6354 174.576 14.3546 177.388 10.3106 183.571C6.74929 189.004 2.98823 193.481 4.76059 197.758C5.98377 200.704 12.7237 202.268 20.6286 202.326C28.5335 202.384 35.6062 195.179 43.9272 190.136C51.0665 185.809 54.345 183.796 54.345 183.796L44.6594 166.946Z" fill="#F28F8F"/>
<path d="M54.6944 171.697C52.1233 169.018 51.6989 166.33 47.8463 164.042C43.9937 161.753 41.5474 161.787 37.4452 159.598C33.343 157.41 30.0063 156.27 26.861 157.218C23.7156 158.167 24.1733 159.973 26.4948 161.495C28.8164 163.018 32.8104 165.04 35.573 167.137C38.3355 169.234 41.0481 170.465 40.9899 173.993C40.7665 179.609 40.2444 185.209 39.4256 190.768C38.5935 196.701 37.2787 201.494 37.7114 202.143C38.1441 202.792 40.6903 203.133 42.3212 199.847C43.9521 196.56 46.2154 184.494 46.2154 184.494C46.2154 184.494 47.2056 192.907 47.5717 198.698C47.9378 204.49 48.0377 208.916 48.1792 210.148C48.3206 211.379 52.4395 210.514 53.1717 206.17C53.9039 201.827 53.2965 188.871 53.2965 188.871C53.2965 188.871 56.6249 194.821 58.7134 198.682C60.802 202.543 63.448 207.785 64.3134 209.083C65.1788 210.381 67.8248 208.159 67.2673 204.681C66.7098 201.203 62.4246 192.624 62.4246 192.624C62.4246 192.624 67.6917 198.349 68.6237 198.915C69.5556 199.48 72.418 199.089 71.511 195.245C70.9036 192.666 69.2976 191.01 65.0706 185.984C60.8436 180.958 60.9102 178.919 59.6371 176.631C57.9396 173.602 56.5666 173.602 54.6944 171.697Z" fill="#FFA8A7"/>
<path d="M43.9438 173.503C48.1958 175.483 52.4478 173.636 53.0469 172.579C52.7141 175.533 46.7896 177.155 43.9438 173.503Z" fill="#F28F8F"/>
<path d="M71.5943 197.458C71.1865 197.991 69.9301 198.149 68.8983 197.225C67.8665 196.302 65.2121 193.248 64.0305 191.842C62.849 190.436 58.78 185.443 58.78 185.443L62.4329 192.624C62.4329 192.624 67.7001 198.349 68.632 198.915C68.9185 199.053 69.2326 199.124 69.5506 199.123C69.8686 199.121 70.1822 199.048 70.4675 198.908C70.7529 198.767 71.0027 198.564 71.1979 198.313C71.3931 198.062 71.5286 197.77 71.5943 197.458Z" fill="#F28F8F"/>
</svg>
