<svg width="813" height="617" viewBox="0 0 813 617" fill="none" xmlns="http://www.w3.org/2000/svg">
<rect width="813" height="617" rx="39" fill="white"/>
<g filter="url(#filter0_d_109_178)">
<path d="M331.804 264.11V352H310.395V299.291L290.738 352H273.461L253.679 299.166V352H232.27V264.11H257.561L282.225 324.957L306.639 264.11H331.804ZM342.943 316.944C342.943 309.766 344.278 303.464 346.949 298.039C349.703 292.614 353.418 288.44 358.092 285.519C362.766 282.598 367.982 281.137 373.742 281.137C378.666 281.137 382.965 282.139 386.637 284.142C390.393 286.145 393.273 288.774 395.276 292.029V282.139H416.685V352H395.276V342.109C393.189 345.364 390.268 347.994 386.512 349.997C382.839 352 378.541 353.002 373.616 353.002C367.941 353.002 362.766 351.541 358.092 348.62C353.418 345.615 349.703 341.4 346.949 335.974C344.278 330.466 342.943 324.122 342.943 316.944ZM395.276 317.069C395.276 311.728 393.774 307.512 390.769 304.424C387.847 301.336 384.258 299.792 380.002 299.792C375.745 299.792 372.114 301.336 369.109 304.424C366.188 307.429 364.727 311.602 364.727 316.944C364.727 322.286 366.188 326.543 369.109 329.715C372.114 332.803 375.745 334.347 380.002 334.347C384.258 334.347 387.847 332.803 390.769 329.715C393.774 326.626 395.276 322.411 395.276 317.069ZM453.583 259.352V352H432.174V259.352H453.583ZM464.841 316.944C464.841 309.766 466.176 303.464 468.847 298.039C471.602 292.614 475.316 288.44 479.99 285.519C484.664 282.598 489.881 281.137 495.64 281.137C500.564 281.137 504.863 282.139 508.535 284.142C512.291 286.145 515.171 288.774 517.174 292.029V282.139H538.583V352H517.174V342.109C515.088 345.364 512.166 347.994 508.41 349.997C504.738 352 500.439 353.002 495.515 353.002C489.839 353.002 484.664 351.541 479.99 348.62C475.316 345.615 471.602 341.4 468.847 335.974C466.176 330.466 464.841 324.122 464.841 316.944ZM517.174 317.069C517.174 311.728 515.672 307.512 512.667 304.424C509.746 301.336 506.157 299.792 501.9 299.792C497.643 299.792 494.012 301.336 491.007 304.424C488.086 307.429 486.626 311.602 486.626 316.944C486.626 322.286 488.086 326.543 491.007 329.715C494.012 332.803 497.643 334.347 501.9 334.347C506.157 334.347 509.746 332.803 512.667 329.715C515.672 326.626 517.174 322.411 517.174 317.069ZM575.481 292.029C577.568 288.774 580.447 286.145 584.12 284.142C587.792 282.139 592.091 281.137 597.015 281.137C602.774 281.137 607.991 282.598 612.665 285.519C617.339 288.44 621.012 292.614 623.683 298.039C626.437 303.464 627.814 309.766 627.814 316.944C627.814 324.122 626.437 330.466 623.683 335.974C621.012 341.4 617.339 345.615 612.665 348.62C607.991 351.541 602.774 353.002 597.015 353.002C592.174 353.002 587.876 352 584.12 349.997C580.447 347.994 577.568 345.406 575.481 342.234V385.303H554.072V282.139H575.481V292.029ZM606.03 316.944C606.03 311.602 604.527 307.429 601.522 304.424C598.601 301.336 594.97 299.792 590.63 299.792C586.373 299.792 582.742 301.336 579.738 304.424C576.816 307.512 575.356 311.728 575.356 317.069C575.356 322.411 576.816 326.626 579.738 329.715C582.742 332.803 586.373 334.347 590.63 334.347C594.887 334.347 598.518 332.803 601.522 329.715C604.527 326.543 606.03 322.286 606.03 316.944ZM670.847 353.002C664.002 353.002 657.826 351.541 652.317 348.62C646.892 345.698 642.593 341.525 639.422 336.1C636.333 330.674 634.789 324.331 634.789 317.069C634.789 309.891 636.375 303.59 639.547 298.164C642.719 292.655 647.059 288.44 652.568 285.519C658.076 282.598 664.253 281.137 671.097 281.137C677.941 281.137 684.118 282.598 689.627 285.519C695.135 288.44 699.476 292.655 702.647 298.164C705.819 303.59 707.405 309.891 707.405 317.069C707.405 324.247 705.777 330.591 702.522 336.1C699.35 341.525 694.968 345.698 689.376 348.62C683.867 351.541 677.691 353.002 670.847 353.002ZM670.847 334.472C674.936 334.472 678.4 332.97 681.238 329.965C684.16 326.96 685.62 322.662 685.62 317.069C685.62 311.477 684.201 307.179 681.363 304.174C678.609 301.169 675.187 299.667 671.097 299.667C666.924 299.667 663.46 301.169 660.705 304.174C657.951 307.095 656.574 311.394 656.574 317.069C656.574 322.662 657.909 326.96 660.58 329.965C663.335 332.97 666.757 334.472 670.847 334.472ZM740.172 293.782C742.676 289.943 745.806 286.938 749.562 284.768C753.318 282.514 757.491 281.388 762.082 281.388V304.049H756.197C750.856 304.049 746.849 305.217 744.178 307.554C741.507 309.808 740.172 313.814 740.172 319.573V352H718.763V282.139H740.172V293.782Z" fill="#0090D4"/>
<path opacity="0.2" d="M106.339 395.527C128.038 395.527 145.629 386.308 145.629 374.935C145.629 363.562 128.038 354.342 106.339 354.342C84.6399 354.342 67.0492 363.562 67.0492 374.935C67.0492 386.308 84.6399 395.527 106.339 395.527Z" fill="black"/>
<path d="M123.497 386.412C123.497 386.412 135.715 382.009 139.698 375.553C139.33 368.397 138.642 355.549 138.531 355.631L115.501 358.016L120.371 378.206L123.497 386.412Z" fill="#37474F"/>
<path d="M132.478 373.774C134.636 370.036 136.514 361.06 136.519 358.028H74.2284C74.2284 358.028 73.062 371.488 73.1611 376.9C73.1611 376.9 73.1611 376.941 73.1611 376.958C74.4617 380.172 77.5234 382.143 84.4984 385.17C97.4104 390.763 114.93 389.911 123.491 386.406V383.554C123.491 383.554 130.32 377.512 132.478 373.774Z" fill="#455A64"/>
<path d="M148.475 297.136C158.622 305.989 160.483 307.797 160.483 307.797C163.276 296.174 165.586 288.05 165.942 283.116C166.297 278.183 172.672 267.37 172.672 267.37C177.751 268.682 181.74 276.701 179.168 284.866C177.296 290.809 180.836 305.278 177.197 324.389C175.29 334.397 169.75 336.765 158.996 330.693C151.461 326.442 137.855 316.592 137.855 316.592L127.526 282.242C136.187 283.77 138.59 288.511 148.475 297.136Z" fill="#FFA8A7"/>
<path d="M129.189 282.09C134.099 283.058 137.476 285.589 143.08 291.165C148.685 296.74 160.541 307.494 160.541 307.494C158.741 312.845 158.558 318.608 160.016 324.063C162.116 332.134 165.364 333.493 165.364 333.493C165.364 333.493 162.804 334.234 156.033 329.865C149.262 325.497 134.187 314.702 134.187 314.702L129.189 282.09Z" fill="#455A64"/>
<path d="M161.124 305.15C161.124 305.15 159.958 323.678 165.638 328.839C171.319 334 174.969 330.589 174.969 330.589C174.969 330.589 174.672 335.837 171.219 335.68C167.767 335.522 167.23 335.779 165.201 335.715C163.171 335.651 159.987 335.371 158.547 331.317C154.301 323.112 155.864 312.34 158.815 305.855C159.801 306.357 159.795 304.94 161.124 305.15Z" fill="#37474F"/>
<path d="M187.281 267.866C187.147 271.196 185.852 273.459 185.175 275.168C182.551 281.799 181.093 281 178.469 286.12L172.969 271.896C170.572 267.691 172.462 265.825 176.165 264.944L187.281 267.866Z" fill="#F28F8F"/>
<path d="M154.902 262.104C156.226 262.989 157.783 263.462 159.375 263.463C160.968 263.464 162.525 262.992 163.85 262.108C165.175 261.224 166.208 259.967 166.818 258.495C167.429 257.024 167.589 255.405 167.279 253.842C166.969 252.28 166.203 250.845 165.077 249.718C163.952 248.591 162.517 247.823 160.955 247.511C159.393 247.199 157.774 247.358 156.302 247.966C154.83 248.575 153.571 249.606 152.686 250.93C152.097 251.809 151.688 252.796 151.481 253.833C151.274 254.87 151.273 255.938 151.479 256.976C151.685 258.014 152.093 259.001 152.68 259.881C153.268 260.76 154.022 261.516 154.902 262.104Z" fill="#455A64"/>
<path d="M157.987 259.328L167.405 254.662C167.583 256.584 167.065 258.506 165.946 260.078C164.826 261.65 163.179 262.767 161.305 263.227C159.431 263.687 157.454 263.459 155.734 262.584C154.014 261.709 152.665 260.245 151.933 258.459C153.234 260.197 154.96 260.815 157.987 259.328Z" fill="#37474F"/>
<path d="M164.886 257.188L165.306 250.72C170.614 256.496 176.714 261.489 183.426 265.551L183.257 268.14C178.982 266.857 171.546 262.227 164.886 257.188Z" fill="#37474F"/>
<path d="M161.049 262.827L164.863 262.536L172.228 267.388C173.85 268.454 175.719 269.084 177.655 269.216C179.592 269.348 181.529 268.977 183.28 268.14C178.288 266.39 170.986 261.725 164.886 257.188L161.049 262.827Z" fill="#455A64"/>
<path d="M173.546 262.191V262.384C173.526 262.548 173.467 262.706 173.375 262.843C173.283 262.981 173.16 263.095 173.016 263.177L171.68 263.836C171.406 263.97 171.394 264.215 171.645 264.384L171.803 264.489C171.946 264.574 172.107 264.624 172.273 264.635C172.439 264.647 172.606 264.618 172.759 264.553L174.112 263.888C174.257 263.808 174.379 263.694 174.471 263.556C174.562 263.418 174.619 263.26 174.637 263.095V262.915C174.637 262.748 174.599 262.583 174.524 262.434C174.449 262.285 174.34 262.156 174.205 262.057L174.048 261.946C173.786 261.789 173.564 261.9 173.546 262.191Z" fill="#407BFF"/>
<path d="M176.06 263.644V263.83C176.039 263.996 175.98 264.155 175.887 264.294C175.794 264.432 175.669 264.547 175.523 264.629L174.194 265.282C173.92 265.422 173.902 265.667 174.159 265.836L174.316 265.941C174.459 266.026 174.621 266.076 174.787 266.088C174.953 266.099 175.119 266.071 175.273 266.006L176.626 265.341C176.77 265.259 176.893 265.144 176.984 265.005C177.074 264.866 177.129 264.707 177.145 264.542V264.361C177.145 264.194 177.106 264.03 177.031 263.881C176.956 263.732 176.847 263.603 176.713 263.504L176.556 263.399C176.299 263.23 176.077 263.358 176.06 263.644Z" fill="#407BFF"/>
<path d="M178.574 265.107V265.3C178.551 265.465 178.491 265.623 178.398 265.762C178.305 265.9 178.182 266.016 178.037 266.099L176.707 266.752C176.433 266.886 176.416 267.131 176.672 267.306L176.83 267.405C176.971 267.491 177.132 267.542 177.297 267.553C177.463 267.565 177.628 267.536 177.78 267.469L179.133 266.804C179.278 266.724 179.402 266.61 179.493 266.472C179.585 266.334 179.641 266.176 179.658 266.011V265.831C179.656 265.664 179.616 265.501 179.541 265.352C179.466 265.204 179.359 265.074 179.227 264.973L179.069 264.868C178.813 264.664 178.591 264.775 178.574 265.107Z" fill="#407BFF"/>
<path d="M161.189 243.99C160.075 244.538 159.293 245.739 159.048 247.536C159.048 247.722 159.002 247.915 158.99 248.119C158.978 248.323 158.99 248.591 158.99 248.836C158.991 249.24 159.019 249.643 159.072 250.043C159.165 250.812 159.325 251.571 159.55 252.312C160.174 254.369 161.21 256.278 162.594 257.922C163.249 258.69 164.002 259.369 164.834 259.94C166.536 261.107 168.134 261.305 169.359 260.751L165.16 262.821C164.338 263.174 163.439 263.312 162.549 263.22C161.659 263.128 160.807 262.81 160.075 262.296C159.277 261.755 158.555 261.11 157.929 260.378C156.495 258.712 155.427 256.765 154.791 254.662C154.563 253.924 154.403 253.167 154.313 252.4C154.26 251.997 154.233 251.592 154.231 251.186C154.231 250.947 154.231 250.708 154.231 250.475C154.231 250.242 154.266 250.084 154.295 249.892C154.417 249.106 154.716 248.357 155.17 247.704C155.624 247.05 156.22 246.508 156.914 246.119L157.03 246.06C157.079 246.033 157.13 246.01 157.182 245.99L161.189 243.99Z" fill="#407BFF"/>
<path opacity="0.1" d="M165.143 262.821C164.32 263.175 163.422 263.312 162.532 263.22C161.642 263.128 160.79 262.81 160.057 262.296C159.26 261.755 158.538 261.11 157.911 260.378L162.577 257.928C163.231 258.696 163.984 259.375 164.816 259.946C166.519 261.113 168.117 261.311 169.342 260.757L165.143 262.821Z" fill="black"/>
<path d="M165.813 244.76C169.312 247.093 171.919 252.388 171.645 256.575C171.511 258.686 170.665 260.115 169.417 260.716L169.347 260.751C168.123 261.334 166.525 261.083 164.822 259.94C161.323 257.608 158.722 252.312 158.99 248.119C159.13 246.031 159.958 244.62 161.188 243.996C162.419 243.372 164.064 243.588 165.813 244.76Z" fill="#407BFF"/>
<path opacity="0.2" d="M165.813 244.76C169.312 247.093 171.919 252.388 171.645 256.575C171.511 258.686 170.665 260.115 169.417 260.716L169.347 260.751C168.123 261.334 166.525 261.083 164.822 259.94C161.323 257.608 158.722 252.312 158.99 248.119C159.13 246.031 159.958 244.62 161.188 243.996C162.419 243.372 164.064 243.588 165.813 244.76Z" fill="black"/>
<path d="M176.142 227.363C176.142 227.363 175.261 234.781 180.3 244.97C181.199 246.799 182.222 248.564 183.362 250.254C187.59 256.511 191.725 259.001 191.725 259.001C186.593 257.952 181.046 257.205 175.564 258.482C173.426 258.986 171.315 259.603 169.242 260.331C168.111 260.885 166.618 260.652 165.049 259.602C163.961 258.847 163.012 257.91 162.244 256.832C161.717 256.115 161.257 255.352 160.868 254.552C159.842 252.573 159.34 250.364 159.41 248.137C159.538 246.253 160.261 244.923 161.387 244.369C163.227 243.169 165.002 241.873 166.706 240.485C171.056 236.922 173.844 232.07 176.142 227.363Z" fill="#407BFF"/>
<path opacity="0.6" d="M176.142 227.363C176.142 227.363 175.261 234.781 180.3 244.97C181.199 246.799 182.222 248.564 183.362 250.254C187.59 256.511 191.725 259.001 191.725 259.001C186.593 257.952 181.046 257.205 175.564 258.482C173.426 258.986 171.315 259.603 169.242 260.331C168.111 260.885 166.618 260.652 165.049 259.602C163.961 258.847 163.012 257.91 162.244 256.832C161.717 256.115 161.257 255.352 160.868 254.552C159.842 252.573 159.34 250.364 159.41 248.137C159.538 246.253 160.261 244.923 161.387 244.369C163.227 243.169 165.002 241.873 166.706 240.485C171.056 236.922 173.844 232.07 176.142 227.363Z" fill="white"/>
<path opacity="0.1" d="M183.362 250.253C187.59 256.511 191.725 259.001 191.725 259.001C186.593 257.952 181.046 257.205 175.564 258.482C173.426 258.986 171.315 259.603 169.242 260.331C168.111 260.885 166.618 260.652 165.049 259.602C163.961 258.847 163.012 257.91 162.244 256.832C167.143 254.027 175.541 249.845 183.362 250.253Z" fill="black"/>
<path d="M191.007 222.225C194.646 224.663 197.889 228.448 200.338 232.775C203.453 238.321 205.249 244.748 204.881 250.347C204.222 260.325 196.95 263.906 188.639 258.348C186.66 256.996 184.873 255.381 183.327 253.549C179.24 248.71 176.45 242.913 175.22 236.7C175.063 235.854 174.94 235.02 174.859 234.187C174.824 233.842 174.794 233.493 174.777 233.148C174.748 232.659 174.73 232.175 174.736 231.696C174.742 231.218 174.736 230.705 174.783 230.221C175.407 220.248 182.673 216.667 191.007 222.225Z" fill="#407BFF"/>
<path opacity="0.1" d="M200.303 232.781C203.418 238.327 205.214 244.754 204.846 250.353C204.187 260.331 196.915 263.912 188.604 258.354C186.625 257.001 184.838 255.387 183.292 253.554C184.691 253.782 187.374 253.059 186.843 251.56C188.223 253.178 189.812 254.605 191.567 255.806C193.952 257.403 196.233 258.138 198.169 257.998C198.974 257.935 199.753 257.682 200.442 257.26C201.131 256.839 201.711 256.26 202.135 255.572C203.195 253.808 203.779 251.798 203.832 249.74C204.147 244.976 202.694 239.429 200.152 234.484C200.152 234.513 200.834 234.321 200.303 232.781Z" fill="black"/>
<path d="M190.856 223.426C194.524 225.882 197.807 229.941 200.152 234.507C202.694 239.453 204.147 245.005 203.832 249.764C203.779 251.821 203.195 253.831 202.135 255.595C201.711 256.283 201.131 256.862 200.442 257.283C199.753 257.705 198.974 257.958 198.169 258.022C196.238 258.185 193.952 257.438 191.567 255.829C189.812 254.629 188.223 253.201 186.843 251.583C186.291 250.949 185.758 250.281 185.245 249.577C184.342 248.343 183.52 247.051 182.784 245.71C182.633 245.43 182.487 245.127 182.341 244.871C182.096 244.404 181.863 243.932 181.641 243.459C180.884 241.845 180.251 240.177 179.746 238.467V238.409C179.419 237.311 179.156 236.195 178.958 235.067C178.818 234.274 178.713 233.487 178.649 232.734C178.649 232.408 178.597 232.087 178.585 231.766C178.574 231.445 178.585 230.996 178.585 230.6C178.585 230.203 178.585 229.865 178.626 229.503C178.68 227.446 179.264 225.437 180.323 223.671C182.399 220.499 186.342 220.417 190.856 223.426Z" fill="#407BFF"/>
<path opacity="0.4" d="M190.856 223.426C194.524 225.882 197.807 229.941 200.152 234.507C202.694 239.453 204.147 245.005 203.832 249.764C203.779 251.821 203.195 253.831 202.135 255.595C201.711 256.283 201.131 256.862 200.442 257.283C199.753 257.705 198.974 257.958 198.169 258.022C196.238 258.185 193.952 257.438 191.567 255.829C189.812 254.629 188.223 253.201 186.843 251.583C186.291 250.949 185.758 250.281 185.245 249.577C184.342 248.343 183.52 247.051 182.784 245.71C182.633 245.43 182.487 245.127 182.341 244.871C182.096 244.404 181.863 243.932 181.641 243.459C180.884 241.845 180.251 240.177 179.746 238.467V238.409C179.419 237.311 179.156 236.195 178.958 235.067C178.818 234.274 178.713 233.487 178.649 232.734C178.649 232.408 178.597 232.087 178.585 231.766C178.574 231.445 178.585 230.996 178.585 230.6C178.585 230.203 178.585 229.865 178.626 229.503C178.68 227.446 179.264 225.437 180.323 223.671C182.399 220.499 186.342 220.417 190.856 223.426Z" fill="black"/>
<path d="M187.718 234.968L192.605 244.696C190.372 245.903 187.625 247.355 185.764 250.271C185.589 250.043 185.42 249.816 185.251 249.583C184.346 248.35 183.524 247.058 182.79 245.716C182.633 245.436 182.487 245.133 182.341 244.876C182.096 244.41 181.863 243.937 181.641 243.465C180.884 241.851 180.251 240.182 179.746 238.473V238.415C179.676 238.17 179.606 237.925 179.542 237.674C183.023 237.919 187.718 234.968 187.718 234.968Z" fill="#37474F"/>
<path d="M193.148 244.112C192.494 245.086 191.328 245.139 190.016 244.264H189.975C188.89 243.451 188.013 242.394 187.414 241.177C186.815 239.961 186.512 238.621 186.528 237.266V237.219C186.545 236.642 186.711 236.079 187.012 235.586C187.66 234.618 188.832 234.56 190.144 235.44H190.185C191.267 236.256 192.142 237.314 192.739 238.529C193.337 239.745 193.641 241.084 193.626 242.439V242.485C193.604 243.062 193.437 243.623 193.142 244.118L193.148 244.112Z" fill="#407BFF"/>
<path d="M174.952 259.66C174.952 259.66 176.602 259.171 177.186 259.077C178.574 258.774 179.606 258.272 180.644 259.293C181 259.643 181.227 260.302 181.612 260.582C181.997 260.862 182.977 260.768 183.525 260.885C184.169 260.994 184.749 261.339 185.152 261.853C185.414 262.221 185.484 262.891 185.84 263.107C186.196 263.323 187.007 263.335 187.526 263.55C188.645 264.034 188.96 265.527 189.374 266.548C189.788 267.569 190.57 269.172 190.092 270.356C189.692 271.221 189.063 271.96 188.272 272.491C187.37 273.189 186.427 273.834 185.449 274.421C185.067 274.618 184.626 274.668 184.21 274.56C183.793 274.453 183.431 274.195 183.192 273.838C182.493 272.934 181.163 273.255 180.323 272.479C179.956 272.135 179.851 271.622 179.495 271.272C179.05 270.946 178.713 270.495 178.527 269.977C178.241 268.922 178.754 267.778 178.97 266.752C179.088 265.799 178.989 264.832 178.679 263.924C178.486 263.253 178.177 262.209 177.582 261.748L174.952 259.66Z" fill="#FFA8A7"/>
<path d="M165.93 283.116C166.07 276.905 165.691 274.234 165.702 271.301C165.702 267.959 168.035 266.052 170.794 263.83C172.276 262.674 173.656 261.392 174.917 259.999C175.949 258.832 176.865 262.39 176.666 263.719C176.416 265.317 174.917 267.143 173.943 268.566C171.698 271.808 180.545 276.334 178.469 286.12C176.427 289.304 165.93 283.116 165.93 283.116Z" fill="#FFA8A7"/>
<path d="M137.557 307.984C137.015 288.593 128.425 283.274 125.042 281.874L111.267 279.104C107.062 279.565 89.1523 284.936 84.2127 286.161C81.0401 286.942 81.1859 293.124 79.5821 303.307C78.2816 311.576 77.5526 318.546 76.7711 330.075C76.1121 339.739 75.3364 350.744 77.0452 364.414C98.8333 371.062 119.741 374.246 135.948 361.83C135.569 359.107 137.219 336.42 137.353 329.755C137.487 323.089 137.703 313.233 137.557 307.984Z" fill="#FAFAFA"/>
<path d="M80.4977 286.621L97.9352 281.087C97.9352 281.087 99.4107 285.624 102.665 294.372C105.919 303.12 105.732 308.509 104.759 323.159C103.785 337.808 103.47 369.313 102.076 382.423C95.5558 382.726 77.675 377.524 72.3329 370.298C72.3329 370.298 74.1817 343.74 75.0156 328.751C75.8496 313.763 72.7937 290.185 80.4977 286.621Z" fill="#407BFF"/>
<path opacity="0.15" d="M80.4977 286.621L97.9352 281.087C97.9352 281.087 99.4107 285.624 102.665 294.372C105.919 303.12 105.732 308.509 104.759 323.159C103.785 337.808 103.47 369.313 102.076 382.423C95.5558 382.726 77.675 377.524 72.3329 370.298C72.3329 370.298 74.1817 343.74 75.0156 328.751C75.8496 313.763 72.7937 290.185 80.4977 286.621Z" fill="black"/>
<path d="M117.379 281.629C123.083 284.475 126.553 291.421 127.112 300.636C127.672 309.85 129.714 328.285 130.028 335.231C131.446 365.423 132.985 373.535 132.985 373.535C135.82 372.077 139.342 370.351 139.844 366.198C139.208 359.737 138.811 335.038 138.759 329.271C138.706 323.503 138.38 310.165 138.176 303.114C137.972 296.064 136.263 287.176 130.367 282.393C126.209 281.145 121.925 280.362 117.595 280.061L117.379 281.629Z" fill="#407BFF"/>
<path opacity="0.15" d="M117.379 281.629C123.083 284.475 126.553 291.421 127.112 300.636C127.672 309.85 129.714 328.285 130.028 335.231C131.446 365.423 132.985 373.535 132.985 373.535C135.82 372.077 139.342 370.351 139.844 366.198C139.208 359.737 138.811 335.038 138.759 329.271C138.706 323.503 138.38 310.165 138.176 303.114C137.972 296.064 136.263 287.176 130.367 282.393C126.209 281.145 121.925 280.362 117.595 280.061L117.379 281.629Z" fill="black"/>
<path d="M127.527 305.966C127.334 299.207 124.611 286.896 117.612 283.805C117.4 283.106 117.321 282.374 117.379 281.647L117.77 278.183C119.867 279.143 121.846 280.345 123.666 281.763C126.582 284.096 131.399 291.025 132.315 296.343C129.428 293.386 127.783 297.603 127.527 305.966Z" fill="#407BFF"/>
<path opacity="0.45" d="M127.527 305.966C127.334 299.207 124.611 286.896 117.612 283.805C117.4 283.106 117.321 282.374 117.379 281.647L117.77 278.183C119.867 279.143 121.846 280.345 123.666 281.763C126.582 284.096 131.399 291.025 132.315 296.343C129.428 293.386 127.783 297.603 127.527 305.966Z" fill="white"/>
<path d="M98.8625 274.403C97.6203 269.802 92.5057 265.364 90.0213 261.486C87.6243 257.747 86.1314 254.814 86.0089 251.093C85.9389 248.895 87.0353 245.792 88.5983 245.016C85.9506 237.062 91.695 232.705 94.8676 231.603C96.3572 231.142 97.8145 230.583 99.2299 229.929C100.927 229.025 101.189 227.596 102.496 226.226C104.747 223.893 108.864 223.479 110.731 226.471C112.159 224.214 114.375 224.056 116.988 224.465C118.089 224.606 119.095 225.161 119.802 226.016C120.509 226.872 120.865 227.964 120.796 229.072C124.027 226.838 127.387 228.949 127.888 230.926C128.261 232.384 128.063 233.662 129.159 234.892C130.39 236.286 132.455 236.058 132.962 234.799C133.516 236.869 132.845 238.549 130.559 238.648C131.002 239.198 131.317 239.84 131.483 240.526C131.65 241.213 131.663 241.927 131.521 242.619C131.327 243.488 130.873 244.276 130.22 244.88C129.567 245.484 128.745 245.876 127.865 246.002C127.736 247.168 127.783 248.241 127.153 249.303C126.566 250.38 125.725 251.299 124.704 251.98C121.409 253.951 117.641 254.849 113.991 255.975L109.669 257.304C109.412 257.386 108.089 257.59 107.955 257.835L98.8625 274.403Z" fill="#263238"/>
<path d="M92.6165 268.892C96.1157 270.543 98.1219 268.21 98.1219 268.21L98.501 276.451L98.6876 285.374C98.6876 285.374 108.019 295.346 120.692 294.745C121.333 291.899 120.406 286.907 118.359 284.458L118.044 277.162C119.905 277.016 121.755 276.755 123.584 276.381C127.206 275.535 130.028 272.339 130.693 268.268C131.393 264.011 131.049 257.188 129.679 252.312C129.305 251.069 129.108 249.779 129.095 248.481C129.125 245.034 128.32 243.109 127.171 240.316C122.826 237.452 111.349 237.861 103.149 243.973C105.458 248.247 104.694 252.86 101.137 255.193C101.446 256.575 101.953 260.092 99.6499 260.244C97.9878 260.354 97.6787 258.29 95.8066 256.622C93.9346 254.954 89.9222 254.837 88.6392 257.683C86.8487 261.667 88.8141 267.085 92.6165 268.892Z" fill="#FFA8A7"/>
<path d="M118.05 277.162C112.171 277.028 107.692 276.812 104.263 272.887C102.111 270.42 100.099 266.326 100.099 266.326C100.099 266.326 101.184 271.418 103.417 274.73C105.132 277.279 108.94 279.18 118.137 279.098L118.05 277.162Z" fill="#F28F8F"/>
<path d="M113.442 254.371C113.455 254.694 113.373 255.014 113.205 255.291C113.037 255.567 112.791 255.788 112.498 255.926C112.206 256.063 111.879 256.112 111.559 256.064C111.238 256.017 110.939 255.876 110.699 255.66C110.458 255.443 110.287 255.161 110.206 254.847C110.126 254.534 110.139 254.204 110.245 253.898C110.351 253.592 110.545 253.325 110.803 253.129C111.06 252.933 111.37 252.817 111.693 252.796C112.133 252.774 112.565 252.927 112.893 253.222C113.221 253.517 113.418 253.93 113.442 254.371Z" fill="#263238"/>
<path d="M111.728 249.612L108.328 251.746C108.05 251.279 107.963 250.723 108.086 250.194C108.209 249.664 108.532 249.203 108.987 248.906C109.212 248.767 109.462 248.674 109.724 248.635C109.985 248.595 110.252 248.608 110.508 248.674C110.764 248.74 111.004 248.857 111.214 249.018C111.423 249.179 111.598 249.381 111.728 249.612Z" fill="#263238"/>
<path d="M127.019 248.959L123.03 248.259C123.063 247.997 123.149 247.745 123.282 247.518C123.416 247.291 123.594 247.093 123.806 246.936C124.018 246.78 124.26 246.668 124.516 246.608C124.773 246.547 125.039 246.54 125.299 246.585C125.835 246.685 126.312 246.987 126.633 247.429C126.953 247.87 127.091 248.418 127.019 248.959Z" fill="#263238"/>
<path d="M126.663 252.691C126.676 253.013 126.594 253.332 126.427 253.608C126.26 253.883 126.016 254.104 125.725 254.242C125.433 254.38 125.108 254.429 124.789 254.384C124.47 254.339 124.171 254.201 123.93 253.987C123.689 253.773 123.515 253.494 123.432 253.183C123.348 252.871 123.358 252.542 123.459 252.237C123.561 251.931 123.75 251.662 124.004 251.463C124.257 251.263 124.563 251.143 124.885 251.117C125.105 251.102 125.326 251.132 125.535 251.204C125.744 251.275 125.936 251.387 126.102 251.534C126.267 251.68 126.402 251.858 126.498 252.056C126.595 252.255 126.651 252.471 126.663 252.691Z" fill="#263238"/>
<path d="M125.106 259.101L119.642 262.192L116.825 251.192C118.866 250.219 122.079 255.088 125.106 259.101Z" fill="#F28F8F"/>
<path d="M114.061 265.358L121.059 266.169C121.026 266.632 120.901 267.084 120.69 267.498C120.479 267.911 120.186 268.278 119.83 268.577C119.474 268.875 119.062 269.098 118.618 269.234C118.174 269.369 117.707 269.414 117.245 269.365C116.299 269.239 115.438 268.752 114.844 268.004C114.25 267.257 113.969 266.308 114.061 265.358Z" fill="#B16668"/>
<path d="M114.999 266.391C114.713 266.392 114.428 266.423 114.148 266.484C114.299 267.225 114.677 267.901 115.23 268.417C115.783 268.934 116.483 269.265 117.233 269.365C117.61 269.402 117.99 269.376 118.359 269.289C118.312 267.703 116.837 266.414 114.999 266.391Z" fill="#F28F8F"/>
<path d="M105.365 308.427C104.957 295.154 99.5332 293.97 97.8536 298.163C93.7362 290.581 94.0978 284.417 94.4011 281.973C95.9116 279.839 96.5064 278.474 97.0196 277.693C97.3369 277.105 97.8668 276.661 98.501 276.451L98.6584 279.786C98.6584 279.786 99.0725 283.676 102.548 288.861C105.103 292.669 105.703 297.294 105.365 308.427Z" fill="#407BFF"/>
<path opacity="0.45" d="M105.365 308.427C104.957 295.154 99.5332 293.97 97.8536 298.163C93.7362 290.581 94.0978 284.417 94.4011 281.973C95.9116 279.839 96.5064 278.474 97.0196 277.693C97.3369 277.105 97.8668 276.661 98.501 276.451L98.6584 279.786C98.6584 279.786 99.0725 283.676 102.548 288.861C105.103 292.669 105.703 297.294 105.365 308.427Z" fill="white"/>
<path d="M84.0026 285.519C73.4177 288.721 68.6938 290.488 65.2529 297.329C61.8121 304.17 55.8285 321.094 52.4926 331.393C49.6292 340.2 48.0662 348.219 49.9616 352.272L70.5717 345.588L81.4541 318.954C81.4541 318.954 88.5224 302.432 84.0026 285.519Z" fill="#455A64"/>
<path d="M70.1051 337.639C71.6097 337.453 73.1144 337.686 74.5432 337.161C74.8958 337.073 75.2256 336.91 75.5111 336.685C75.7965 336.46 76.0311 336.177 76.1995 335.855C76.5202 334.974 75.9079 334.041 75.2489 333.376C73.3938 331.595 71.0622 330.39 68.5363 329.906C63.6556 328.922 58.5837 329.727 54.248 332.175C51.6645 333.569 48.5036 335.458 48.3228 338.747C48.2644 339.739 48.4861 340.759 48.1886 341.704C47.9903 342.334 47.5704 342.871 47.343 343.495C47.1589 344.06 47.0586 344.65 47.0456 345.244C46.945 345.957 47.0109 346.684 47.238 347.367C47.413 347.787 47.7162 348.154 47.897 348.574C48.0905 349.237 48.2424 349.911 48.3519 350.592C48.7368 351.945 50.2065 353.508 51.437 352.149C52.5509 350.913 52.93 349.233 53.659 347.769C54.5046 346.084 56.0851 344.789 57.5722 343.687C59.5958 342.217 61.758 340.947 64.0282 339.896C65.7367 338.995 67.5428 338.293 69.4111 337.803C69.6444 337.709 69.8718 337.669 70.1051 337.639Z" fill="#37474F"/>
<path d="M77.7857 331.008C75.832 333.341 69.9418 334.035 65.7952 335.196C61.6487 336.356 56.5458 338.328 53.7115 342.661C51.2154 346.469 48.5793 349.606 49.8215 352.604C50.6788 354.669 55.4027 355.765 60.9431 355.806C66.4834 355.847 71.4406 350.796 77.2725 347.262C82.2763 344.229 84.5741 342.818 84.5741 342.818L77.7857 331.008Z" fill="#F28F8F"/>
<path d="M84.8191 334.338C83.017 332.461 82.7196 330.577 80.0194 328.973C77.3192 327.369 75.6046 327.393 72.7295 325.859C69.8543 324.325 67.5157 323.526 65.3112 324.191C63.1067 324.856 63.4275 326.121 65.0546 327.189C66.6817 328.256 69.4811 329.673 71.4173 331.143C73.3535 332.612 75.2547 333.475 75.2139 335.948C75.0573 339.884 74.6913 343.808 74.1175 347.705C73.5343 351.863 72.6128 355.223 72.9161 355.678C73.2193 356.132 75.0039 356.372 76.147 354.068C77.29 351.764 78.8763 343.308 78.8763 343.308C78.8763 343.308 79.5703 349.204 79.8269 353.263C80.0835 357.322 80.1535 360.425 80.2527 361.288C80.3518 362.151 83.2386 361.545 83.7518 358.5C84.265 355.456 83.8393 346.376 83.8393 346.376C83.8393 346.376 86.1721 350.545 87.6359 353.251C89.0997 355.958 90.9543 359.632 91.5608 360.541C92.1673 361.451 94.0219 359.894 93.6311 357.456C93.2404 355.019 90.237 349.006 90.237 349.006C90.237 349.006 93.9286 353.018 94.5818 353.415C95.2349 353.811 97.2411 353.537 96.6054 350.843C96.1797 349.035 95.0541 347.874 92.0915 344.352C89.1289 340.829 89.1755 339.401 88.2833 337.797C87.0935 335.674 86.1313 335.674 84.8191 334.338Z" fill="#FFA8A7"/>
<path d="M77.2842 335.604C80.2644 336.992 83.2445 335.697 83.6644 334.957C83.4311 337.027 79.2788 338.164 77.2842 335.604Z" fill="#F28F8F"/>
<path d="M96.6638 352.394C96.378 352.767 95.4974 352.878 94.7742 352.231C94.051 351.584 92.1906 349.443 91.3625 348.458C90.5344 347.472 87.6826 343.973 87.6826 343.973L90.2428 349.006C90.2428 349.006 93.9344 353.018 94.5876 353.415C94.7884 353.512 95.0085 353.561 95.2314 353.561C95.4543 353.56 95.674 353.508 95.8741 353.41C96.0741 353.312 96.2491 353.169 96.386 352.993C96.5228 352.817 96.6178 352.612 96.6638 352.394Z" fill="#F28F8F"/>
</g>
<defs>
<filter id="filter0_d_109_178" x="38.9999" y="219.607" width="725.082" height="185.92" filterUnits="userSpaceOnUse" color-interpolation-filters="sRGB">
<feFlood flood-opacity="0" result="BackgroundImageFix"/>
<feColorMatrix in="SourceAlpha" type="matrix" values="0 0 0 0 0 0 0 0 0 0 0 0 0 0 0 0 0 0 127 0" result="hardAlpha"/>
<feOffset dx="-3" dy="5"/>
<feGaussianBlur stdDeviation="2.5"/>
<feComposite in2="hardAlpha" operator="out"/>
<feColorMatrix type="matrix" values="0 0 0 0 0 0 0 0 0 0 0 0 0 0 0 0 0 0 0.25 0"/>
<feBlend mode="normal" in2="BackgroundImageFix" result="effect1_dropShadow_109_178"/>
<feBlend mode="normal" in="SourceGraphic" in2="effect1_dropShadow_109_178" result="shape"/>
</filter>
</defs>
</svg>
